<svg width="294" height="206" viewBox="0 0 294 206" fill="none" xmlns="http://www.w3.org/2000/svg">
<rect width="293" height="206" transform="translate(0.5)" fill="black"/>
<path d="M10.5 140.367V108.421H33.3198V112.891H15.7151V122.343H31.6423V126.767H15.7151V140.365H10.5V140.367Z" fill="white"/>
<path d="M80.683 140.367V112.893H70.1109V108.423H96.5641V112.893H85.8999V140.367H80.683Z" fill="white"/>
<path d="M114.445 140.925C111.713 140.925 109.354 140.483 107.367 139.598C105.379 138.713 103.859 137.34 102.802 135.476C101.746 133.613 101.219 131.255 101.219 128.398V108.421H106.434V128.539C106.434 131.178 107.133 133.165 108.53 134.5C109.927 135.834 111.898 136.501 114.444 136.501C117.021 136.501 119.03 135.834 120.475 134.5C121.919 133.165 122.641 131.178 122.641 128.539V108.421H127.856V128.398C127.856 131.255 127.322 133.613 126.249 135.476C125.178 137.338 123.64 138.713 121.638 139.598C119.638 140.483 117.24 140.925 114.445 140.925Z" fill="white"/>
<path d="M135.263 140.367V108.421H152.075C154.341 108.421 156.219 108.825 157.711 109.632C159.2 110.44 160.319 111.564 161.064 113.009C161.809 114.453 162.181 116.137 162.181 118.062C162.181 120.203 161.7 122.067 160.738 123.65C159.775 125.234 158.409 126.397 156.64 127.143L163.3 140.368H157.619L151.565 128.028H140.48V140.368H135.263V140.367ZM140.48 123.648H151.657C153.333 123.648 154.63 123.153 155.545 122.159C156.461 121.166 156.918 119.785 156.918 118.015C156.918 116.93 156.715 116.006 156.313 115.245C155.91 114.486 155.32 113.903 154.544 113.5C153.768 113.096 152.805 112.895 151.657 112.895H140.48V123.648Z" fill="white"/>
<path d="M216.809 140.925C215.071 140.925 213.393 140.746 211.78 140.391C210.165 140.035 208.737 139.46 207.496 138.667C206.254 137.876 205.277 136.866 204.561 135.641C203.846 134.415 203.49 132.948 203.49 131.241C203.49 131.055 203.498 130.876 203.514 130.706C203.529 130.537 203.538 130.387 203.538 130.264H208.753C208.753 130.358 208.746 130.496 208.729 130.682C208.713 130.868 208.705 131.025 208.705 131.149C208.705 132.297 209.046 133.276 209.73 134.083C210.412 134.89 211.367 135.497 212.595 135.899C213.821 136.302 215.226 136.503 216.809 136.503C217.677 136.503 218.516 136.45 219.324 136.341C220.131 136.232 220.868 136.061 221.536 135.829C222.203 135.596 222.786 135.301 223.281 134.944C223.777 134.588 224.166 134.16 224.446 133.663C224.727 133.167 224.865 132.592 224.865 131.939C224.865 130.946 224.577 130.124 224.004 129.471C223.429 128.819 222.653 128.277 221.676 127.842C220.699 127.407 219.595 127.02 218.369 126.677C217.141 126.336 215.876 125.995 214.573 125.652C213.27 125.311 212.003 124.907 210.777 124.441C209.55 123.975 208.449 123.409 207.47 122.742C206.491 122.074 205.715 121.236 205.142 120.227C204.567 119.219 204.281 117.984 204.281 116.526C204.281 115.129 204.576 113.888 205.166 112.801C205.756 111.715 206.609 110.807 207.728 110.077C208.846 109.347 210.18 108.796 211.734 108.423C213.286 108.051 215.041 107.865 216.997 107.865C218.673 107.865 220.256 108.044 221.748 108.401C223.237 108.759 224.542 109.31 225.659 110.055C226.777 110.799 227.654 111.747 228.29 112.895C228.926 114.043 229.245 115.409 229.245 116.993V117.551H224.076V116.946C224.076 115.953 223.781 115.114 223.191 114.432C222.601 113.75 221.777 113.221 220.723 112.849C219.666 112.477 218.441 112.29 217.043 112.29C215.397 112.29 214.016 112.453 212.899 112.779C211.782 113.105 210.936 113.555 210.361 114.13C209.786 114.705 209.5 115.394 209.5 116.202C209.5 117.103 209.795 117.84 210.385 118.414C210.975 118.989 211.758 119.477 212.737 119.881C213.716 120.285 214.816 120.649 216.044 120.976C217.27 121.302 218.527 121.643 219.816 122.001C221.104 122.358 222.362 122.769 223.587 123.234C224.813 123.7 225.916 124.273 226.895 124.957C227.873 125.641 228.657 126.487 229.247 127.495C229.837 128.505 230.132 129.738 230.132 131.196C230.132 133.495 229.556 135.364 228.408 136.807C227.26 138.251 225.683 139.299 223.681 139.95C221.676 140.599 219.384 140.925 216.809 140.925Z" fill="white"/>
<path d="M175.076 131.523H170.375V136.223H175.076V131.523Z" fill="white"/>
<path d="M189.18 108.02H175.076V112.72H189.18V108.02Z" fill="white"/>
<path d="M189.18 136.225H175.076V140.925H189.18V136.225Z" fill="white"/>
<path d="M193.881 131.523H189.18V136.223H193.881V131.523Z" fill="white"/>
<path d="M175.076 112.72H170.375V117.42H175.076V112.72Z" fill="white"/>
<path d="M193.881 112.72H189.18V117.42H193.881V112.72Z" fill="white"/>
<path d="M198.581 117.422H193.881V131.525H198.581V117.422Z" fill="white"/>
<path d="M170.373 117.422H165.672V131.525H170.373V117.422Z" fill="white"/>
<path d="M44.2384 136.636H42.6549C39.6759 136.636 39.027 134.221 39.027 131.244V108.421H44.2384V136.636Z" fill="white"/>
<path d="M60.2468 136.636H60.4274V108.421H65.6388V131.243C65.6388 134.221 63.2257 136.636 60.2468 136.636Z" fill="white"/>
<path d="M55.8613 140.925H48.8065C46.2847 140.925 44.2385 138.881 44.2385 136.358V136.634H60.4293V136.358C60.4293 138.881 58.3831 140.925 55.8613 140.925Z" fill="white"/>
<path d="M44.1407 95.4156V63.4723H68.9164V67.9421H49.3576V76.8358H66.8684V81.3056H49.3576V90.9439H69.1966V95.4137H44.1407V95.4156Z" fill="white"/>
<path d="M75.5288 95.4156V63.4723H80.7438V95.4156H75.5288Z" fill="white"/>
<path d="M88.289 95.4156V63.4723H93.3179L107.894 83.4954C108.08 83.6815 108.29 83.9451 108.522 84.2861C108.755 84.629 108.98 84.97 109.197 85.311C109.415 85.652 109.57 85.9321 109.664 86.1496H109.896C109.896 85.6833 109.896 85.2335 109.896 84.7985C109.896 84.3635 109.896 83.9304 109.896 83.4954V63.4723H114.925V95.4156H110.082L95.3199 75.1584C95.071 74.7861 94.7613 74.3124 94.3889 73.7373C94.0165 73.164 93.7363 72.7216 93.5502 72.4101H93.3179C93.3179 72.8451 93.3179 73.2875 93.3179 73.7373C93.3179 74.187 93.3179 74.6607 93.3179 75.1584V95.4156H88.289Z" fill="white"/>
<path d="M130.948 95.4156L119.166 63.4723H124.802L132.719 85.7773C132.874 86.1497 133.029 86.5847 133.186 87.0805C133.341 87.5782 133.495 88.0519 133.652 88.4998C133.807 88.9495 133.947 89.3458 134.071 89.6868H134.303C134.426 89.3458 134.566 88.9569 134.721 88.5219C134.876 88.0869 135.031 87.6371 135.188 87.1708C135.343 86.7045 135.497 86.2547 135.654 85.8197L143.478 63.4686H148.927L137.096 95.4156H130.948Z" fill="white"/>
<path d="M153.163 95.4156V63.4723H177.939V67.9421H158.378V76.8358H175.889V81.3056H158.378V90.9439H178.217V95.4137H153.163V95.4156Z" fill="white"/>
<path d="M239.738 95.4156L252.266 63.4705H258.926L271.5 95.4156H265.911L263.07 88.0113H247.934L245.093 95.4156H239.738ZM249.611 83.5875H261.346L257.761 74.2276C257.667 73.9474 257.529 73.5603 257.342 73.0627C257.156 72.5668 256.963 72.0231 256.76 71.4332C256.557 70.8434 256.356 70.2462 256.155 69.6398C255.953 69.0352 255.776 68.4841 255.619 67.9864H255.339C255.152 68.5762 254.92 69.2748 254.64 70.0821C254.36 70.8895 254.089 71.6655 253.825 72.4102C253.562 73.1548 253.337 73.7612 253.151 74.2257L249.611 83.5875Z" fill="white"/>
<path d="M15.7298 83.5414H10.5V95.4156H15.7298V83.5414Z" fill="white"/>
<path d="M32.1695 78.4652H33.2C35.5375 78.4652 37.4325 76.5703 37.4325 74.2331V72.1742C37.4325 69.837 35.5375 67.9421 33.2 67.9421H32.1695H32.1677C32.1677 67.9495 32.1695 67.9569 32.1695 67.9661V78.4652Z" fill="white"/>
<path d="M32.1677 67.9421C32.1548 65.4704 30.1491 63.4723 27.6752 63.4723H10.5V78.467H15.7298V67.944H32.1677V67.9421Z" fill="white"/>
<path d="M37.4343 95.4156V88.756C37.4343 85.875 35.0987 83.5396 32.2174 83.5396H32.1695V95.4137H37.4343V95.4156Z" fill="white"/>
<path d="M32.1695 78.4652H15.7298V83.5415H32.1695V78.4652Z" fill="white"/>
<path d="M226.519 95.4156V67.9421H215.946V63.4723H242.4V67.9421H231.735V95.4156H226.519Z" fill="white"/>
<path d="M189.252 67.6915V62.9912H184.551V67.6915V72.3936V77.0938V81.7941V86.4943V91.1964V95.8967H189.252V91.1964V86.4943V81.7941V77.0938V72.3936H193.954V67.6915H189.252Z" fill="white"/>
<path d="M198.655 72.3936H193.954V77.0938H198.655V72.3936Z" fill="white"/>
<path d="M203.356 77.0938H198.655V81.7941H203.356V77.0938Z" fill="white"/>
<path d="M208.057 62.9912V67.6915V72.3936V77.0938V81.7941H203.356V86.4943H208.057V91.1964V95.8967H212.759V91.1964V86.4943V81.7941V77.0938V72.3936V67.6915V62.9912H208.057Z" fill="white"/>
<path d="M10.5 50.4664V18.5213H35.2757V22.9911H15.7151V31.8847H33.2258V36.3546H15.7151V45.9929H35.554V50.4627H10.5V50.4664Z" fill="white"/>
<path d="M41.8881 50.4664V18.5213H54.2298C57.5203 18.5213 60.3297 19.089 62.6598 20.2207C64.9881 21.3543 66.7817 23.0925 68.0389 25.4353C69.2962 27.7798 69.9248 30.7991 69.9248 34.4929C69.9248 38.1573 69.2962 41.1673 68.0389 43.5266C66.7817 45.886 64.9881 47.6333 62.6598 48.7651C60.3316 49.8987 57.5203 50.4646 54.2298 50.4646H41.8881V50.4664ZM47.105 45.9966H54.1837C55.8299 45.9966 57.2954 45.7791 58.584 45.344C59.8725 44.909 60.9583 44.2418 61.8432 43.3423C62.728 42.4428 63.3953 41.3018 63.8451 39.9194C64.2949 38.5388 64.5198 36.9002 64.5198 35.0072V34.0284C64.5198 32.1041 64.2949 30.4507 63.8451 29.0701C63.3953 27.6895 62.728 26.5486 61.8432 25.6472C60.9583 24.7477 59.8707 24.0805 58.584 23.6455C57.2954 23.2105 55.8281 22.993 54.1837 22.993H47.105V45.9966Z" fill="white"/>
<path d="M89.019 51.0249C86.287 51.0249 83.9274 50.5825 81.9402 49.6978C79.953 48.813 78.4322 47.4398 77.3759 45.5763C76.3196 43.7128 75.7924 41.3553 75.7924 38.4983V18.5213H81.0075V38.6384C81.0075 41.2779 81.7061 43.2649 83.1034 44.5994C84.5007 45.9339 86.4714 46.6011 89.0171 46.6011C91.5943 46.6011 93.6036 45.9339 95.0488 44.5994C96.4922 43.2649 97.2149 41.2779 97.2149 38.6384V18.5213H102.43V38.4983C102.43 41.3553 101.893 43.7128 100.822 45.5763C99.7514 47.438 98.214 48.813 96.212 49.6978C94.2101 50.5825 91.8118 51.0249 89.019 51.0249Z" fill="white"/>
<path d="M137.665 50.4664L150.193 18.5213H156.853L169.428 50.4664H163.838L160.998 43.0621H145.861L143.02 50.4664H137.665ZM147.539 38.6384H159.274L155.688 29.2784C155.594 28.9982 155.456 28.6111 155.27 28.1135C155.084 27.6176 154.89 27.0739 154.687 26.4841C154.485 25.8942 154.284 25.297 154.083 24.6906C153.88 24.086 153.703 23.5349 153.546 23.0372H153.266C153.08 23.627 152.848 24.3256 152.568 25.133C152.287 25.9403 152.016 26.7163 151.753 27.461C151.489 28.2056 151.264 28.8121 151.078 29.2766L147.539 38.6384Z" fill="white"/>
<path d="M186.704 51.0249C183.445 51.0249 180.672 50.4424 178.39 49.2794C176.108 48.1144 174.362 46.3062 173.151 43.8547C171.94 41.4032 171.335 38.2826 171.335 34.4948C171.335 28.9061 172.694 24.7551 175.411 22.0382C178.129 19.3212 181.908 17.9628 186.752 17.9628C189.421 17.9628 191.82 18.4125 193.947 19.3139C196.072 20.2152 197.75 21.5571 198.976 23.3413C200.202 25.1274 200.816 27.4001 200.816 30.1632H195.507C195.507 28.4563 195.149 27.0278 194.435 25.8795C193.72 24.7311 192.704 23.8611 191.385 23.2713C190.065 22.6815 188.536 22.3865 186.798 22.3865C184.625 22.3865 182.785 22.8142 181.279 23.6676C179.773 24.521 178.639 25.8021 177.88 27.5089C177.118 29.2157 176.739 31.3907 176.739 34.0284V35.0533C176.739 37.6928 177.118 39.8659 177.88 41.5728C178.639 43.2796 179.765 44.5459 181.257 45.368C182.746 46.1901 184.593 46.6011 186.798 46.6011C188.599 46.6011 190.166 46.3136 191.503 45.7403C192.837 45.1671 193.87 44.3045 194.6 43.1561C195.33 42.0078 195.695 40.5793 195.695 38.8724H200.817C200.817 41.6355 200.204 43.9174 198.978 45.7182C197.75 47.5191 196.074 48.8536 193.949 49.7236C191.82 50.5899 189.407 51.0249 186.704 51.0249ZM186.704 58.8015C185.959 58.8015 185.191 58.7702 184.398 58.7075C183.607 58.6448 182.885 58.5527 182.232 58.4273V56.3777H186.61C187.2 56.3777 187.665 56.2837 188.007 56.0975C188.348 55.9113 188.52 55.5998 188.52 55.1667C188.52 54.7943 188.395 54.5141 188.148 54.328C187.899 54.1418 187.403 54.0478 186.658 54.0478H184.47L185.169 49.9503H188.336L188.009 52.1382C188.817 52.1696 189.561 52.293 190.245 52.5106C190.927 52.7281 191.464 53.0469 191.853 53.4653C192.24 53.8838 192.435 54.4496 192.435 55.1648C192.435 55.9095 192.257 56.5159 191.899 56.9804C191.541 57.4467 191.077 57.8099 190.502 58.0753C189.926 58.3389 189.305 58.525 188.638 58.6338C187.969 58.7462 187.325 58.8015 186.704 58.8015Z" fill="white"/>
<path d="M203.144 50.4664L215.672 18.5213H222.332L234.906 50.4664H229.317L226.476 43.0621H211.34L208.499 50.4664H203.144ZM211.48 14.9823C211.48 14.0828 211.627 13.2515 211.922 12.4902C212.217 11.7308 212.674 11.1244 213.296 10.6746C213.917 10.2249 214.708 10 215.67 10C216.477 10 217.237 10.1327 217.952 10.3963C218.665 10.6599 219.373 10.9253 220.07 11.187C220.769 11.4506 221.475 11.5833 222.188 11.5833C222.623 11.5833 222.972 11.4598 223.235 11.211C223.499 10.9622 223.661 10.5585 223.724 10H226.611C226.579 10.9013 226.417 11.7234 226.122 12.4681C225.827 13.2128 225.377 13.8192 224.771 14.2837C224.166 14.75 223.366 14.9823 222.373 14.9823C221.597 14.9823 220.843 14.8422 220.114 14.5639C219.384 14.2837 218.678 14.0127 217.996 13.7491C217.312 13.4856 216.63 13.3528 215.946 13.3528C215.48 13.3528 215.115 13.4856 214.851 13.7491C214.588 14.0127 214.424 14.4238 214.363 14.9823H211.48ZM213.017 38.6384H224.752L221.167 29.2784C221.073 28.9982 220.935 28.6112 220.749 28.1135C220.562 27.6177 220.369 27.0739 220.166 26.4841C219.963 25.8942 219.762 25.297 219.561 24.6906C219.359 24.086 219.182 23.5349 219.025 23.0372H218.745C218.559 23.627 218.326 24.3256 218.046 25.133C217.766 25.9403 217.495 26.7163 217.231 27.461C216.968 28.2056 216.743 28.8121 216.557 29.2766L213.017 38.6384Z" fill="white"/>
<path d="M121.301 18.0421H116.6V22.7423H130.704V18.0421H121.301Z" fill="white"/>
<path d="M116.6 41.5452H111.9V46.2454H116.6V41.5452Z" fill="white"/>
<path d="M130.704 46.2454H116.6V50.9457H130.704V46.2454Z" fill="white"/>
<path d="M135.405 41.5452H130.704V46.2454H135.405V41.5452Z" fill="white"/>
<path d="M116.6 22.7423H111.9V27.4426H116.6V22.7423Z" fill="white"/>
<path d="M111.898 27.4426H107.197V41.5452H111.898V27.4426Z" fill="white"/>
<path d="M135.405 22.7423H130.704V27.4426H135.405V22.7423Z" fill="white"/>
<path d="M242.344 27.5863C242.344 26.2721 242.608 25.0205 243.085 23.8777C238.853 25.5458 235.855 29.6673 235.855 34.4929C235.855 39.3185 238.853 43.44 243.085 45.1081C242.608 43.9671 242.344 42.7137 242.344 41.3995V27.5863Z" fill="white"/>
<path d="M260.852 23.8777C261.33 25.0186 261.593 26.2721 261.593 27.5863V41.4013C261.593 42.7156 261.33 43.9671 260.852 45.1099C265.085 43.4418 268.082 39.3203 268.082 34.4947C268.082 29.6691 265.085 25.5458 260.852 23.8777Z" fill="white"/>
<path d="M256.671 23.0851C258.148 23.0851 259.556 23.369 260.851 23.8777C259.398 20.4032 255.969 17.9628 251.967 17.9628C247.967 17.9628 244.536 20.4051 243.084 23.8777C244.378 23.3671 245.788 23.0851 247.263 23.0851H256.671Z" fill="white"/>
<path d="M247.264 45.9025C245.788 45.9025 244.379 45.6187 243.085 45.1099C244.538 48.5844 247.967 51.0249 251.969 51.0249C255.969 51.0249 259.4 48.5826 260.852 45.1099C259.558 45.6205 258.148 45.9025 256.673 45.9025H247.264Z" fill="white"/>
</svg>
