<svg width="598" height="601" viewBox="0 0 598 601" fill="none" xmlns="http://www.w3.org/2000/svg">
<rect x="-1" width="599" height="601" fill="black"/>
<g clip-path="url(#clip0_104_3852)">
<path d="M90 354.074V301.127H127.858V308.536H98.6518V324.202H125.075V331.534H98.6518V354.071H90V354.074Z" fill="white"/>
<path d="M206.434 354.074V308.539H188.895V301.13H232.781V308.539H215.089V354.074H206.434Z" fill="white"/>
<path d="M262.446 355C257.913 355 253.999 354.267 250.702 352.8C247.405 351.334 244.882 349.058 243.13 345.969C241.377 342.881 240.503 338.973 240.503 334.238V301.127H249.155V334.47C249.155 338.845 250.314 342.138 252.632 344.35C254.95 346.562 258.219 347.668 262.443 347.668C266.718 347.668 270.052 346.562 272.449 344.35C274.844 342.138 276.043 338.845 276.043 334.47V301.127H284.695V334.238C284.695 338.973 283.808 342.881 282.028 345.969C280.251 349.055 277.7 351.334 274.379 352.8C271.061 354.267 267.082 355 262.446 355Z" fill="white"/>
<path d="M296.983 354.074V301.127H324.874C328.633 301.127 331.749 301.796 334.223 303.134C336.694 304.473 338.551 306.336 339.786 308.731C341.022 311.123 341.639 313.916 341.639 317.105C341.639 320.655 340.841 323.744 339.245 326.368C337.648 328.992 335.382 330.92 332.446 332.157L343.496 354.077H334.07L324.027 333.624H305.638V354.077H296.983V354.074ZM305.638 326.365H324.18C326.96 326.365 329.113 325.543 330.63 323.897C332.15 322.25 332.908 319.962 332.908 317.029C332.908 315.229 332.572 313.699 331.905 312.437C331.235 311.178 330.257 310.213 328.969 309.544C327.682 308.875 326.085 308.542 324.18 308.542H305.638V326.365Z" fill="white"/>
<path d="M432.268 355C429.384 355 426.601 354.704 423.925 354.114C421.246 353.524 418.876 352.571 416.817 351.258C414.756 349.947 413.135 348.273 411.949 346.241C410.762 344.21 410.172 341.778 410.172 338.949C410.172 338.64 410.184 338.344 410.212 338.063C410.236 337.782 410.251 337.534 410.251 337.33H418.903C418.903 337.485 418.891 337.715 418.863 338.023C418.836 338.332 418.824 338.591 418.824 338.796C418.824 340.699 419.389 342.322 420.524 343.66C421.656 344.998 423.24 346.003 425.277 346.669C427.31 347.338 429.641 347.671 432.268 347.671C433.708 347.671 435.1 347.582 436.439 347.402C437.779 347.222 439.002 346.938 440.109 346.553C441.216 346.168 442.183 345.679 443.005 345.086C443.828 344.497 444.473 343.788 444.938 342.963C445.403 342.141 445.632 341.188 445.632 340.107C445.632 338.46 445.155 337.097 444.204 336.016C443.25 334.934 441.962 334.036 440.342 333.315C438.721 332.594 436.889 331.953 434.855 331.384C432.818 330.819 430.72 330.254 428.558 329.686C426.396 329.121 424.295 328.452 422.261 327.679C420.224 326.906 418.399 325.968 416.775 324.862C415.151 323.756 413.863 322.366 412.912 320.695C411.958 319.024 411.484 316.977 411.484 314.56C411.484 312.245 411.973 310.189 412.952 308.386C413.93 306.587 415.346 305.081 417.203 303.871C419.056 302.661 421.27 301.747 423.848 301.13C426.423 300.513 429.335 300.205 432.58 300.205C435.36 300.205 437.987 300.501 440.461 301.094C442.932 301.686 445.097 302.6 446.95 303.834C448.804 305.068 450.259 306.639 451.314 308.542C452.37 310.445 452.899 312.709 452.899 315.333V316.259H444.323V315.257C444.323 313.61 443.834 312.22 442.855 311.09C441.877 309.959 440.51 309.083 438.76 308.466C437.008 307.848 434.974 307.54 432.656 307.54C429.925 307.54 427.634 307.809 425.781 308.349C423.928 308.89 422.524 309.636 421.57 310.589C420.616 311.542 420.142 312.685 420.142 314.023C420.142 315.517 420.631 316.739 421.61 317.689C422.588 318.642 423.888 319.451 425.512 320.121C427.136 320.79 428.962 321.394 430.999 321.935C433.032 322.476 435.118 323.041 437.256 323.634C439.393 324.227 441.479 324.908 443.513 325.678C445.547 326.451 447.375 327.401 448.999 328.534C450.623 329.668 451.923 331.07 452.902 332.741C453.88 334.415 454.37 336.459 454.37 338.875C454.37 342.685 453.416 345.783 451.51 348.175C449.605 350.567 446.99 352.305 443.669 353.384C440.341 354.459 436.54 355 432.268 355Z" fill="white"/>
<path d="M363.032 339.416H355.233V347.207H363.032V339.416Z" fill="white"/>
<path d="M386.431 300.461H363.032V308.252H386.431V300.461Z" fill="white"/>
<path d="M386.431 347.21H363.032V355H386.431V347.21Z" fill="white"/>
<path d="M394.229 339.416H386.431V347.207H394.229V339.416Z" fill="white"/>
<path d="M363.032 308.252H355.233V316.042H363.032V308.252Z" fill="white"/>
<path d="M394.229 308.252H386.431V316.042H394.229V308.252Z" fill="white"/>
<path d="M402.028 316.045H394.229V339.419H402.028V316.045Z" fill="white"/>
<path d="M355.23 316.045H347.432V339.419H355.23V316.045Z" fill="white"/>
<path d="M145.972 347.891H143.345C138.403 347.891 137.327 343.889 137.327 338.955V301.127H145.972V347.891Z" fill="white"/>
<path d="M172.53 347.891H172.83V301.127H181.475V338.952C181.475 343.889 177.472 347.891 172.53 347.891Z" fill="white"/>
<path d="M165.254 355H153.551C149.367 355 145.972 351.612 145.972 347.43V347.888H172.833V347.43C172.833 351.612 169.438 355 165.254 355Z" fill="white"/>
<path d="M145.81 279.571V226.627H186.913V234.035H154.465V248.776H183.515V256.185H154.465V272.159H187.378V279.568H145.81V279.571Z" fill="white"/>
<path d="M197.883 279.571V226.627H206.535V279.571H197.883Z" fill="white"/>
<path d="M219.052 279.571V226.627H227.395L251.577 259.814C251.886 260.122 252.234 260.559 252.62 261.125C253.005 261.693 253.378 262.258 253.739 262.823C254.1 263.388 254.357 263.853 254.513 264.213H254.898C254.898 263.44 254.898 262.695 254.898 261.974C254.898 261.253 254.898 260.535 254.898 259.814V226.627H263.241V279.571H255.207L230.716 245.996C230.304 245.379 229.79 244.594 229.172 243.64C228.554 242.69 228.089 241.957 227.781 241.441H227.395C227.395 242.162 227.395 242.895 227.395 243.64C227.395 244.386 227.395 245.171 227.395 245.996V279.571H219.052Z" fill="white"/>
<path d="M289.823 279.571L270.278 226.627H279.627L292.762 263.596C293.019 264.213 293.276 264.934 293.536 265.756C293.793 266.581 294.05 267.366 294.31 268.108C294.567 268.854 294.799 269.511 295.004 270.076H295.389C295.594 269.511 295.827 268.866 296.084 268.145C296.34 267.424 296.597 266.679 296.857 265.906C297.114 265.133 297.371 264.387 297.631 263.666L310.61 226.621H319.65L300.023 279.571H289.823Z" fill="white"/>
<path d="M326.678 279.571V226.627H367.781V234.035H335.33V248.776H364.381V256.185H335.33V272.159H368.243V279.568H326.678V279.571Z" fill="white"/>
<path d="M470.306 279.571L491.09 226.624H502.14L523 279.571H513.727L509.015 267.299H483.903L479.191 279.571H470.306ZM486.686 259.967H506.155L500.207 244.453C500.051 243.989 499.822 243.347 499.513 242.522C499.204 241.701 498.883 240.799 498.546 239.822C498.21 238.844 497.876 237.854 497.543 236.849C497.207 235.847 496.913 234.934 496.653 234.109H496.188C495.879 235.086 495.494 236.244 495.029 237.582C494.564 238.92 494.115 240.207 493.677 241.441C493.24 242.675 492.867 243.68 492.558 244.45L486.686 259.967Z" fill="white"/>
<path d="M98.6763 259.89H90V279.571H98.6763V259.89Z" fill="white"/>
<path d="M125.95 251.477H127.659C131.537 251.477 134.681 248.336 134.681 244.462V241.05C134.681 237.176 131.537 234.035 127.659 234.035H125.95H125.947C125.947 234.048 125.95 234.06 125.95 234.075V251.477Z" fill="white"/>
<path d="M125.947 234.035C125.925 229.939 122.598 226.627 118.494 226.627H90V251.48H98.6763V234.038H125.947V234.035Z" fill="white"/>
<path d="M134.684 279.571V268.533C134.684 263.758 130.809 259.887 126.029 259.887H125.95V279.568H134.684V279.571Z" fill="white"/>
<path d="M125.95 251.477H98.6763V259.89H125.95V251.477Z" fill="white"/>
<path d="M448.376 279.571V234.035H430.836V226.627H474.722V234.035H457.03V279.571H448.376Z" fill="white"/>
<path d="M386.55 233.62V225.83H378.751V233.62V241.413V249.204V256.994V264.784V272.578V280.368H386.55V272.578V264.784V256.994V249.204V241.413H394.351V233.62H386.55Z" fill="white"/>
<path d="M402.15 241.413H394.351V249.204H402.15V241.413Z" fill="white"/>
<path d="M409.949 249.204H402.15V256.994H409.949V249.204Z" fill="white"/>
<path d="M417.747 225.83V233.62V241.413V249.204V256.994H409.949V264.784H417.747V272.578V280.368H425.549V272.578V264.784V256.994V249.204V241.413V233.62V225.83H417.747Z" fill="white"/>
<path d="M90 205.071V152.123H131.103V159.532H98.6518V174.273H127.702V181.681H98.6518V197.656H131.565V205.064H90V205.071Z" fill="white"/>
<path d="M142.073 205.071V152.123H162.548C168.007 152.123 172.668 153.064 176.533 154.94C180.396 156.819 183.372 159.7 185.457 163.583C187.543 167.469 188.586 172.473 188.586 178.595C188.586 184.669 187.543 189.658 185.457 193.568C183.372 197.479 180.396 200.375 176.533 202.251C172.671 204.13 168.007 205.067 162.548 205.067H142.073V205.071ZM150.728 197.662H162.471C165.202 197.662 167.634 197.302 169.772 196.581C171.909 195.86 173.711 194.754 175.179 193.263C176.646 191.772 177.754 189.881 178.5 187.59C179.246 185.301 179.619 182.585 179.619 179.448V177.826C179.619 174.636 179.246 171.896 178.5 169.608C177.754 167.319 176.646 165.428 175.179 163.934C173.711 162.443 171.906 161.338 169.772 160.617C167.634 159.896 165.199 159.535 162.471 159.535H150.728V197.662Z" fill="white"/>
<path d="M220.263 205.996C215.731 205.996 211.816 205.263 208.52 203.797C205.223 202.33 202.7 200.054 200.947 196.965C199.195 193.877 198.32 189.969 198.32 185.234V152.123H206.972V185.466C206.972 189.841 208.131 193.134 210.449 195.346C212.768 197.558 216.037 198.664 220.26 198.664C224.536 198.664 227.869 197.558 230.267 195.346C232.661 193.134 233.86 189.841 233.86 185.466V152.123H242.512V185.234C242.512 189.969 241.622 193.877 239.845 196.965C238.068 200.051 235.518 202.33 232.197 203.797C228.875 205.263 224.897 205.996 220.263 205.996Z" fill="white"/>
<path d="M300.968 205.071L321.752 152.123H332.801L353.661 205.071H344.389L339.676 192.798H314.565L309.852 205.071H300.968ZM317.348 185.466H336.816L330.868 169.953C330.712 169.488 330.483 168.847 330.174 168.022C329.865 167.2 329.544 166.299 329.208 165.321C328.871 164.344 328.538 163.354 328.204 162.349C327.868 161.347 327.574 160.433 327.314 159.608H326.85C326.541 160.586 326.155 161.744 325.691 163.082C325.226 164.42 324.776 165.706 324.339 166.94C323.901 168.175 323.528 169.18 323.22 169.95L317.348 185.466Z" fill="white"/>
<path d="M382.323 205.996C376.916 205.996 372.317 205.031 368.531 203.103C364.744 201.172 361.848 198.175 359.839 194.112C357.83 190.049 356.827 184.877 356.827 178.599C356.827 169.336 359.081 162.456 363.588 157.953C368.096 153.449 374.366 151.198 382.403 151.198C386.831 151.198 390.81 151.943 394.339 153.437C397.865 154.931 400.648 157.155 402.682 160.112C404.716 163.073 405.734 166.84 405.734 171.419H396.927C396.927 168.59 396.333 166.223 395.15 164.319C393.963 162.416 392.278 160.974 390.088 159.996C387.899 159.019 385.363 158.53 382.479 158.53C378.874 158.53 375.821 159.239 373.323 160.653C370.824 162.068 368.943 164.191 367.683 167.02C366.42 169.849 365.79 173.454 365.79 177.826V179.524C365.79 183.899 366.42 187.501 367.683 190.33C368.943 193.159 370.812 195.258 373.286 196.62C375.757 197.983 378.822 198.664 382.479 198.664C385.467 198.664 388.067 198.187 390.284 197.237C392.498 196.287 394.211 194.857 395.422 192.954C396.633 191.051 397.238 188.683 397.238 185.854H405.737C405.737 190.434 404.719 194.216 402.685 197.201C400.648 200.185 397.868 202.397 394.342 203.839C390.81 205.275 386.807 205.996 382.323 205.996ZM382.323 218.885C381.088 218.885 379.813 218.833 378.497 218.73C377.185 218.626 375.987 218.473 374.904 218.265V214.868H382.167C383.146 214.868 383.917 214.712 384.486 214.404C385.051 214.095 385.336 213.579 385.336 212.861C385.336 212.244 385.128 211.779 384.718 211.471C384.305 211.162 383.482 211.006 382.247 211.006H378.617L379.776 204.215H385.03L384.489 207.841C385.828 207.893 387.064 208.098 388.198 208.459C389.33 208.819 390.22 209.348 390.865 210.041C391.507 210.735 391.831 211.672 391.831 212.858C391.831 214.092 391.535 215.097 390.942 215.867C390.348 216.64 389.578 217.242 388.623 217.682C387.669 218.119 386.639 218.427 385.531 218.607C384.421 218.794 383.354 218.885 382.323 218.885Z" fill="white"/>
<path d="M409.597 205.071L430.381 152.123H441.43L462.291 205.071H453.018L448.305 192.798H423.194L418.481 205.071H409.597ZM423.426 146.258C423.426 144.767 423.671 143.389 424.16 142.127C424.65 140.869 425.408 139.864 426.439 139.118C427.469 138.373 428.781 138 430.378 138C431.717 138 432.977 138.22 434.164 138.657C435.347 139.094 436.522 139.534 437.678 139.967C438.837 140.404 440.008 140.624 441.192 140.624C441.913 140.624 442.491 140.42 442.929 140.007C443.366 139.595 443.635 138.926 443.739 138H448.528C448.476 139.494 448.207 140.856 447.718 142.091C447.229 143.325 446.482 144.33 445.476 145.1C444.473 145.873 443.146 146.258 441.498 146.258C440.21 146.258 438.959 146.026 437.751 145.564C436.54 145.1 435.369 144.651 434.237 144.214C433.103 143.777 431.971 143.557 430.836 143.557C430.063 143.557 429.457 143.777 429.02 144.214C428.583 144.651 428.31 145.332 428.209 146.258H423.426ZM425.977 185.466H445.446L439.497 169.953C439.341 169.488 439.112 168.847 438.803 168.022C438.494 167.2 438.173 166.299 437.837 165.321C437.5 164.344 437.167 163.354 436.834 162.349C436.497 161.347 436.204 160.433 435.944 159.608H435.479C435.17 160.586 434.785 161.744 434.32 163.082C433.855 164.42 433.405 165.706 432.968 166.94C432.531 168.175 432.158 169.18 431.849 169.95L425.977 185.466Z" fill="white"/>
<path d="M273.819 151.329H266.021V159.12H289.42V151.329H273.819Z" fill="white"/>
<path d="M266.021 190.284H258.222V198.074H266.021V190.284Z" fill="white"/>
<path d="M289.42 198.074H266.021V205.865H289.42V198.074Z" fill="white"/>
<path d="M297.218 190.284H289.42V198.074H297.218V190.284Z" fill="white"/>
<path d="M266.021 159.12H258.222V166.91H266.021V159.12Z" fill="white"/>
<path d="M258.219 166.91H250.421V190.284H258.219V166.91Z" fill="white"/>
<path d="M297.218 159.12H289.42V166.91H297.218V159.12Z" fill="white"/>
<path d="M474.631 167.148C474.631 164.97 475.068 162.896 475.86 161.001C468.838 163.766 463.866 170.597 463.866 178.595C463.866 186.594 468.838 193.425 475.86 196.189C475.068 194.298 474.631 192.221 474.631 190.043V167.148Z" fill="white"/>
<path d="M505.336 161.001C506.128 162.893 506.565 164.97 506.565 167.148V190.046C506.565 192.224 506.128 194.298 505.336 196.193C512.357 193.428 517.33 186.597 517.33 178.599C517.33 170.6 512.357 163.766 505.336 161.001Z" fill="white"/>
<path d="M498.399 159.688C500.849 159.688 503.186 160.158 505.332 161.001C502.923 155.243 497.234 151.198 490.595 151.198C483.958 151.198 478.267 155.246 475.857 161.001C478.004 160.155 480.343 159.688 482.79 159.688H498.399Z" fill="white"/>
<path d="M482.793 197.506C480.343 197.506 478.007 197.036 475.86 196.193C478.27 201.951 483.958 205.996 490.598 205.996C497.234 205.996 502.926 201.948 505.336 196.193C503.189 197.039 500.849 197.506 498.402 197.506H482.793Z" fill="white"/>
</g>
<defs>
<clipPath id="clip0_104_3852">
<rect width="433" height="217" fill="white" transform="translate(90 138)"/>
</clipPath>
</defs>
</svg>
