<svg width="994" height="59" viewBox="0 0 994 59" fill="none" xmlns="http://www.w3.org/2000/svg">
<path d="M501.426 29.4934V58.9396H492.625V29.4934H501.426Z" fill="black"/>
<path d="M483.824 29.4934V58.9396H475.022V29.4934H483.824Z" fill="black"/>
<path d="M466.221 29.4934V58.9396H457.419V29.4934H466.221Z" fill="black"/>
<path d="M448.618 29.4934V58.9396H439.816V29.4934H448.618Z" fill="black"/>
<path d="M431.015 29.4934V58.9396H422.213V29.4934H431.015Z" fill="black"/>
<path d="M413.463 29.4934V58.9396H404.662V29.4934H413.463Z" fill="black"/>
<path d="M395.86 29.4934V58.9396H387.059V29.4934H395.86Z" fill="black"/>
<path d="M378.258 29.4934V58.9396H369.456V29.4934H378.258Z" fill="black"/>
<path d="M360.654 29.4934V58.9396H351.853V29.4934H360.654Z" fill="black"/>
<path d="M343.051 29.4934V58.9396H334.25V29.4934H343.051Z" fill="black"/>
<path d="M325.5 29.4934V58.9396H316.699V29.4934H325.5Z" fill="black"/>
<path d="M307.897 29.4934V58.9396H299.096V29.4934H307.897Z" fill="black"/>
<path d="M290.294 29.4934V58.9396H281.493V29.4934H290.294Z" fill="black"/>
<path d="M272.691 29.4934V58.9396H263.89V29.4934H272.691Z" fill="black"/>
<path d="M492.625 29.4934V58.9396H483.824V29.4934H492.625Z" fill="white"/>
<path d="M475.022 29.4934V58.9396H466.221V29.4934H475.022Z" fill="white"/>
<path d="M457.419 29.4934V58.9396H448.618V29.4934H457.419Z" fill="white"/>
<path d="M439.816 29.4934V58.9396H431.015V29.4934H439.816Z" fill="white"/>
<path d="M422.213 29.4934V58.9396H413.464V29.4934H422.213Z" fill="white"/>
<path d="M404.662 29.4934V58.9396H395.861V29.4934H404.662Z" fill="white"/>
<path d="M387.059 29.4934V58.9396H378.258V29.4934H387.059Z" fill="white"/>
<path d="M369.456 29.4934V58.9396H360.655V29.4934H369.456Z" fill="white"/>
<path d="M351.853 29.4934V58.9396H343.052V29.4934H351.853Z" fill="white"/>
<path d="M334.25 29.4934V58.9396H325.5V29.4934H334.25Z" fill="white"/>
<path d="M316.699 29.4934V58.9396H307.897V29.4934H316.699Z" fill="white"/>
<path d="M299.096 29.4934V58.9396H290.294V29.4934H299.096Z" fill="white"/>
<path d="M281.493 29.4934V58.9396H272.692V29.4934H281.493Z" fill="white"/>
<path d="M263.89 29.4934V58.9396H255.088V29.4934H263.89Z" fill="white"/>
<path d="M255.088 29.4934V58.9396H246.287V29.4934H255.088Z" fill="black"/>
<path d="M501.426 0V29.4935H492.625V0H501.426Z" fill="black"/>
<path d="M492.625 0V29.4935H483.824V0H492.625Z" fill="black"/>
<path d="M466.221 0V29.4935H457.419V0H466.221Z" fill="black"/>
<path d="M457.419 0V29.4935H448.618V0H457.419Z" fill="black"/>
<path d="M431.015 0V29.4935H422.213V0H431.015Z" fill="black"/>
<path d="M422.213 0V29.4935H413.464V0H422.213Z" fill="black"/>
<path d="M395.86 0V29.4935H387.059V0H395.86Z" fill="black"/>
<path d="M387.059 0V29.4935H378.258V0H387.059Z" fill="black"/>
<path d="M360.654 0V29.4935H351.853V0H360.654Z" fill="black"/>
<path d="M351.853 0V29.4935H343.051V0H351.853Z" fill="black"/>
<path d="M325.5 0V29.4935H316.699V0H325.5Z" fill="black"/>
<path d="M316.699 0V29.4935H307.897V0H316.699Z" fill="black"/>
<path d="M290.294 0V29.4935H281.493V0H290.294Z" fill="black"/>
<path d="M281.493 0V29.4935H272.691V0H281.493Z" fill="black"/>
<path d="M483.824 0V29.4935H475.022V0H483.824Z" fill="white"/>
<path d="M475.022 0V29.4935H466.221V0H475.022Z" fill="white"/>
<path d="M448.618 0V29.4935H439.817V0H448.618Z" fill="white"/>
<path d="M439.816 0V29.4935H431.015V0H439.816Z" fill="white"/>
<path d="M413.463 0V29.4935H404.662V0H413.463Z" fill="white"/>
<path d="M404.662 0V29.4935H395.861V0H404.662Z" fill="white"/>
<path d="M378.258 0V29.4935H369.456V0H378.258Z" fill="white"/>
<path d="M369.456 0V29.4935H360.655V0H369.456Z" fill="white"/>
<path d="M343.052 0V29.4935H334.25V0H343.052Z" fill="white"/>
<path d="M334.25 0V29.4935H325.5V0H334.25Z" fill="white"/>
<path d="M307.897 0V29.4935H299.096V0H307.897Z" fill="white"/>
<path d="M299.096 0V29.4935H290.294V0H299.096Z" fill="white"/>
<path d="M272.691 0V29.4935H263.89V0H272.691Z" fill="white"/>
<path d="M263.89 0V29.4935H255.088V0H263.89Z" fill="white"/>
<path d="M255.088 0V29.4935H246.287V0H255.088Z" fill="black"/>
<path d="M237.485 29.4934V58.9396H228.736V29.4934H237.485Z" fill="black"/>
<path d="M219.934 29.4934V58.9396H211.132V29.4934H219.934Z" fill="black"/>
<path d="M202.331 29.4934V58.9396H193.53V29.4934H202.331Z" fill="black"/>
<path d="M184.728 29.4934V58.9396H175.927V29.4934H184.728Z" fill="black"/>
<path d="M167.125 29.4934V58.9396H158.323V29.4934H167.125Z" fill="black"/>
<path d="M149.522 29.4934V58.9396H140.772V29.4934H149.522Z" fill="black"/>
<path d="M131.971 29.4934V58.9396H123.169V29.4934H131.971Z" fill="black"/>
<path d="M114.368 29.4934V58.9396H105.566V29.4934H114.368Z" fill="black"/>
<path d="M96.7649 29.4934V58.9396H87.9634V29.4934H96.7649Z" fill="black"/>
<path d="M79.1618 29.4934V58.9396H70.3604V29.4934H79.1618Z" fill="black"/>
<path d="M61.5587 29.4934V58.9396H52.7572V29.4934H61.5587Z" fill="black"/>
<path d="M44.0073 29.4934V58.9396H35.2058V29.4934H44.0073Z" fill="black"/>
<path d="M26.4045 29.4934V58.9396H17.603V29.4934H26.4045Z" fill="black"/>
<path d="M246.287 29.4934V58.9396H237.485V29.4934H246.287Z" fill="white"/>
<path d="M228.736 29.4934V58.9396H219.934V29.4934H228.736Z" fill="white"/>
<path d="M211.132 29.4934V58.9396H202.331V29.4934H211.132Z" fill="white"/>
<path d="M193.53 29.4934V58.9396H184.728V29.4934H193.53Z" fill="white"/>
<path d="M175.927 29.4934V58.9396H167.125V29.4934H175.927Z" fill="white"/>
<path d="M158.323 29.4934V58.9396H149.522V29.4934H158.323Z" fill="white"/>
<path d="M140.772 29.4934V58.9396H131.971V29.4934H140.772Z" fill="white"/>
<path d="M123.169 29.4934V58.9396H114.368V29.4934H123.169Z" fill="white"/>
<path d="M105.566 29.4934V58.9396H96.7648V29.4934H105.566Z" fill="white"/>
<path d="M87.9634 29.4934V58.9396H79.1619V29.4934H87.9634Z" fill="white"/>
<path d="M70.3603 29.4934V58.9396H61.5588V29.4934H70.3603Z" fill="white"/>
<path d="M52.7573 29.4934V58.9396H44.0076V29.4934H52.7573Z" fill="white"/>
<path d="M35.2063 29.4934V58.9396H26.4048V29.4934H35.2063Z" fill="white"/>
<path d="M17.6031 29.4934V58.9396H8.80164V29.4934H17.6031Z" fill="white"/>
<path d="M8.8015 29.4934V58.9396H0V29.4934H8.8015Z" fill="black"/>
<path d="M246.287 0V29.4935H237.485V0H246.287Z" fill="black"/>
<path d="M219.934 0V29.4935H211.132V0H219.934Z" fill="black"/>
<path d="M211.132 0V29.4935H202.331V0H211.132Z" fill="black"/>
<path d="M184.728 0V29.4935H175.927V0H184.728Z" fill="black"/>
<path d="M175.926 0V29.4935H167.125V0H175.926Z" fill="black"/>
<path d="M149.522 0V29.4935H140.772V0H149.522Z" fill="black"/>
<path d="M140.772 0V29.4935H131.971V0H140.772Z" fill="black"/>
<path d="M114.368 0V29.4935H105.566V0H114.368Z" fill="black"/>
<path d="M105.566 0V29.4935H96.7646V0H105.566Z" fill="black"/>
<path d="M79.1618 0V29.4935H70.3604V0H79.1618Z" fill="black"/>
<path d="M70.3602 0V29.4935H61.5587V0H70.3602Z" fill="black"/>
<path d="M44.0073 0V29.4935H35.2058V0H44.0073Z" fill="black"/>
<path d="M35.2062 0V29.4935H26.4047V0H35.2062Z" fill="black"/>
<path d="M237.485 0V29.4935H228.736V0H237.485Z" fill="white"/>
<path d="M228.736 0V29.4935H219.934V0H228.736Z" fill="white"/>
<path d="M202.331 0V29.4935H193.53V0H202.331Z" fill="white"/>
<path d="M193.53 0V29.4935H184.728V0H193.53Z" fill="white"/>
<path d="M167.125 0V29.4935H158.323V0H167.125Z" fill="white"/>
<path d="M158.323 0V29.4935H149.522V0H158.323Z" fill="white"/>
<path d="M131.971 0V29.4935H123.17V0H131.971Z" fill="white"/>
<path d="M123.169 0V29.4935H114.368V0H123.169Z" fill="white"/>
<path d="M96.765 0V29.4935H87.9635V0H96.765Z" fill="white"/>
<path d="M87.9634 0V29.4935H79.1619V0H87.9634Z" fill="white"/>
<path d="M61.5588 0V29.4935H52.7573V0H61.5588Z" fill="white"/>
<path d="M52.7573 0V29.4935H44.0076V0H52.7573Z" fill="white"/>
<path d="M26.4046 0V29.4935H17.6031V0H26.4046Z" fill="white"/>
<path d="M17.6031 0V29.4935H8.80164V0H17.6031Z" fill="white"/>
<path d="M8.8015 0V29.4935H0V0H8.8015Z" fill="black"/>
<path d="M994 29.4934V58.9396H985.198V29.4934H994Z" fill="black"/>
<path d="M976.448 29.4934V58.9396H967.647V29.4934H976.448Z" fill="black"/>
<path d="M958.846 29.4934V58.9396H950.044V29.4934H958.846Z" fill="black"/>
<path d="M941.243 29.4934V58.9396H932.441V29.4934H941.243Z" fill="black"/>
<path d="M923.64 29.4934V58.9396H914.838V29.4934H923.64Z" fill="black"/>
<path d="M906.037 29.4934V58.9396H897.235V29.4934H906.037Z" fill="black"/>
<path d="M888.434 29.4934V58.9396H879.684V29.4934H888.434Z" fill="black"/>
<path d="M870.883 29.4934V58.9396H862.081V29.4934H870.883Z" fill="black"/>
<path d="M853.28 29.4934V58.9396H844.478V29.4934H853.28Z" fill="black"/>
<path d="M835.676 29.4934V58.9396H826.875V29.4934H835.676Z" fill="black"/>
<path d="M818.074 29.4934V58.9396H809.272V29.4934H818.074Z" fill="black"/>
<path d="M800.471 29.4934V58.9396H791.721V29.4934H800.471Z" fill="black"/>
<path d="M782.919 29.4934V58.9396H774.118V29.4934H782.919Z" fill="black"/>
<path d="M765.317 29.4934V58.9396H756.515V29.4934H765.317Z" fill="black"/>
<path d="M985.198 29.4934V58.9396H976.449V29.4934H985.198Z" fill="white"/>
<path d="M967.647 29.4934V58.9396H958.846V29.4934H967.647Z" fill="white"/>
<path d="M950.044 29.4934V58.9396H941.243V29.4934H950.044Z" fill="white"/>
<path d="M932.441 29.4934V58.9396H923.64V29.4934H932.441Z" fill="white"/>
<path d="M914.838 29.4934V58.9396H906.037V29.4934H914.838Z" fill="white"/>
<path d="M897.235 29.4934V58.9396H888.434V29.4934H897.235Z" fill="white"/>
<path d="M879.684 29.4934V58.9396H870.883V29.4934H879.684Z" fill="white"/>
<path d="M862.081 29.4934V58.9396H853.279V29.4934H862.081Z" fill="white"/>
<path d="M844.478 29.4934V58.9396H835.676V29.4934H844.478Z" fill="white"/>
<path d="M826.875 29.4934V58.9396H818.073V29.4934H826.875Z" fill="white"/>
<path d="M809.272 29.4934V58.9396H800.47V29.4934H809.272Z" fill="white"/>
<path d="M791.721 29.4934V58.9396H782.919V29.4934H791.721Z" fill="white"/>
<path d="M774.118 29.4934V58.9396H765.316V29.4934H774.118Z" fill="white"/>
<path d="M756.515 29.4934V58.9396H747.713V29.4934H756.515Z" fill="white"/>
<path d="M747.713 29.4934V58.9396H738.912V29.4934H747.713Z" fill="black"/>
<path d="M994 0V29.4935H985.198V0H994Z" fill="black"/>
<path d="M985.198 0V29.4935H976.449V0H985.198Z" fill="black"/>
<path d="M958.846 0V29.4935H950.044V0H958.846Z" fill="black"/>
<path d="M950.044 0V29.4935H941.243V0H950.044Z" fill="black"/>
<path d="M923.64 0V29.4935H914.838V0H923.64Z" fill="black"/>
<path d="M914.838 0V29.4935H906.037V0H914.838Z" fill="black"/>
<path d="M888.434 0V29.4935H879.684V0H888.434Z" fill="black"/>
<path d="M879.684 0V29.4935H870.883V0H879.684Z" fill="black"/>
<path d="M853.28 0V29.4935H844.478V0H853.28Z" fill="black"/>
<path d="M844.478 0V29.4935H835.677V0H844.478Z" fill="black"/>
<path d="M818.074 0V29.4935H809.272V0H818.074Z" fill="black"/>
<path d="M809.272 0V29.4935H800.471V0H809.272Z" fill="black"/>
<path d="M782.919 0V29.4935H774.118V0H782.919Z" fill="black"/>
<path d="M774.118 0V29.4935H765.316V0H774.118Z" fill="black"/>
<path d="M976.449 0V29.4935H967.647V0H976.449Z" fill="white"/>
<path d="M967.647 0V29.4935H958.846V0H967.647Z" fill="white"/>
<path d="M941.242 0V29.4935H932.441V0H941.242Z" fill="white"/>
<path d="M932.441 0V29.4935H923.64V0H932.441Z" fill="white"/>
<path d="M906.037 0V29.4935H897.235V0H906.037Z" fill="white"/>
<path d="M897.235 0V29.4935H888.434V0H897.235Z" fill="white"/>
<path d="M870.883 0V29.4935H862.081V0H870.883Z" fill="white"/>
<path d="M862.081 0V29.4935H853.279V0H862.081Z" fill="white"/>
<path d="M835.676 0V29.4935H826.875V0H835.676Z" fill="white"/>
<path d="M826.875 0V29.4935H818.073V0H826.875Z" fill="white"/>
<path d="M800.47 0V29.4935H791.721V0H800.47Z" fill="white"/>
<path d="M791.721 0V29.4935H782.919V0H791.721Z" fill="white"/>
<path d="M765.316 0V29.4935H756.515V0H765.316Z" fill="white"/>
<path d="M756.515 0V29.4935H747.713V0H756.515Z" fill="white"/>
<path d="M747.714 0V29.4935H738.912V0H747.714Z" fill="black"/>
<path d="M730.11 29.4934V58.9396H721.309V29.4934H730.11Z" fill="black"/>
<path d="M712.507 29.4934V58.9396H703.706V29.4934H712.507Z" fill="black"/>
<path d="M694.956 29.4934V58.9396H686.155V29.4934H694.956Z" fill="black"/>
<path d="M677.353 29.4934V58.9396H668.552V29.4934H677.353Z" fill="black"/>
<path d="M659.75 29.4934V58.9396H650.948V29.4934H659.75Z" fill="black"/>
<path d="M642.147 29.4934V58.9396H633.346V29.4934H642.147Z" fill="black"/>
<path d="M624.544 29.4934V58.9396H615.743V29.4934H624.544Z" fill="black"/>
<path d="M606.993 29.4934V58.9396H598.191V29.4934H606.993Z" fill="black"/>
<path d="M589.39 29.4934V58.9396H580.589V29.4934H589.39Z" fill="black"/>
<path d="M571.787 29.4934V58.9396H562.985V29.4934H571.787Z" fill="black"/>
<path d="M554.184 29.4934V58.9396H545.382V29.4934H554.184Z" fill="black"/>
<path d="M536.581 29.4934V58.9396H527.78V29.4934H536.581Z" fill="black"/>
<path d="M518.978 29.4934V58.9396H510.228V29.4934H518.978Z" fill="black"/>
<path d="M738.912 29.4934V58.9396H730.11V29.4934H738.912Z" fill="white"/>
<path d="M721.309 29.4934V58.9396H712.507V29.4934H721.309Z" fill="white"/>
<path d="M703.706 29.4934V58.9396H694.956V29.4934H703.706Z" fill="white"/>
<path d="M686.155 29.4934V58.9396H677.353V29.4934H686.155Z" fill="white"/>
<path d="M668.552 29.4934V58.9396H659.75V29.4934H668.552Z" fill="white"/>
<path d="M650.948 29.4934V58.9396H642.147V29.4934H650.948Z" fill="white"/>
<path d="M633.346 29.4934V58.9396H624.544V29.4934H633.346Z" fill="white"/>
<path d="M615.743 29.4934V58.9396H606.993V29.4934H615.743Z" fill="white"/>
<path d="M598.191 29.4934V58.9396H589.39V29.4934H598.191Z" fill="white"/>
<path d="M580.588 29.4934V58.9396H571.787V29.4934H580.588Z" fill="white"/>
<path d="M562.985 29.4934V58.9396H554.184V29.4934H562.985Z" fill="white"/>
<path d="M545.382 29.4934V58.9396H536.581V29.4934H545.382Z" fill="white"/>
<path d="M527.78 29.4934V58.9396H518.978V29.4934H527.78Z" fill="white"/>
<path d="M510.228 29.4934V58.9396H501.427V29.4934H510.228Z" fill="white"/>
<path d="M738.912 0V29.4935H730.11V0H738.912Z" fill="black"/>
<path d="M712.507 0V29.4935H703.706V0H712.507Z" fill="black"/>
<path d="M703.706 0V29.4935H694.956V0H703.706Z" fill="black"/>
<path d="M677.353 0V29.4935H668.552V0H677.353Z" fill="black"/>
<path d="M668.552 0V29.4935H659.75V0H668.552Z" fill="black"/>
<path d="M642.147 0V29.4935H633.346V0H642.147Z" fill="black"/>
<path d="M633.346 0V29.4935H624.544V0H633.346Z" fill="black"/>
<path d="M606.993 0V29.4935H598.191V0H606.993Z" fill="black"/>
<path d="M598.191 0V29.4935H589.39V0H598.191Z" fill="black"/>
<path d="M571.787 0V29.4935H562.985V0H571.787Z" fill="black"/>
<path d="M562.985 0V29.4935H554.184V0H562.985Z" fill="black"/>
<path d="M536.581 0V29.4935H527.78V0H536.581Z" fill="black"/>
<path d="M527.78 0V29.4935H518.978V0H527.78Z" fill="black"/>
<path d="M730.11 0V29.4935H721.309V0H730.11Z" fill="white"/>
<path d="M721.309 0V29.4935H712.507V0H721.309Z" fill="white"/>
<path d="M694.956 0V29.4935H686.155V0H694.956Z" fill="white"/>
<path d="M686.155 0V29.4935H677.353V0H686.155Z" fill="white"/>
<path d="M659.75 0V29.4935H650.948V0H659.75Z" fill="white"/>
<path d="M650.949 0V29.4935H642.147V0H650.949Z" fill="white"/>
<path d="M624.544 0V29.4935H615.743V0H624.544Z" fill="white"/>
<path d="M615.743 0V29.4935H606.993V0H615.743Z" fill="white"/>
<path d="M589.39 0V29.4935H580.589V0H589.39Z" fill="white"/>
<path d="M580.589 0V29.4935H571.787V0H580.589Z" fill="white"/>
<path d="M554.184 0V29.4935H545.382V0H554.184Z" fill="white"/>
<path d="M545.382 0V29.4935H536.581V0H545.382Z" fill="white"/>
<path d="M518.978 0V29.4935H510.228V0H518.978Z" fill="white"/>
<path d="M510.228 0V29.4935H501.427V0H510.228Z" fill="white"/>
</svg>
