<svg width="705" height="21" viewBox="0 0 705 21" fill="none" xmlns="http://www.w3.org/2000/svg">
<path d="M57 10.5084V21H49.2792V10.5084H57Z" fill="black"/>
<path d="M41.6039 10.5084V21H33.8831V10.5084H41.6039Z" fill="black"/>
<path d="M26.1623 10.5084V21H18.4415V10.5084H26.1623Z" fill="black"/>
<path d="M10.7208 10.5084V21H3V10.5084H10.7208Z" fill="black"/>
<path d="M-4.72083 10.5084V21H-12.4416V10.5084H-4.72083Z" fill="black"/>
<path d="M-20.1623 10.5084V21H-27.8832V10.5084H-20.1623Z" fill="black"/>
<path d="M-35.6039 10.5084V21H-43.2792V10.5084H-35.6039Z" fill="black"/>
<path d="M49.2792 10.5084V21H41.6039V10.5084H49.2792Z" fill="white"/>
<path d="M33.8831 10.5084V21H26.1623V10.5084H33.8831Z" fill="white"/>
<path d="M18.4415 10.5084V21H10.7208V10.5084H18.4415Z" fill="white"/>
<path d="M3 10.5084V21H-4.72083V10.5084H3Z" fill="white"/>
<path d="M-12.4416 10.5084V21H-20.1623V10.5084H-12.4416Z" fill="white"/>
<path d="M-27.8832 10.5084V21H-35.6039V10.5084H-27.8832Z" fill="white"/>
<path d="M-43.2792 10.5084V21H-51V10.5084H-43.2792Z" fill="white"/>
<path d="M57 0V10.5084H49.2792V0H57Z" fill="black"/>
<path d="M49.2792 0V10.5084H41.6039V0H49.2792Z" fill="black"/>
<path d="M26.1623 0V10.5084H18.4415V0H26.1623Z" fill="black"/>
<path d="M18.4415 0V10.5084H10.7208V0H18.4415Z" fill="black"/>
<path d="M-4.72083 0V10.5084H-12.4416V0H-4.72083Z" fill="black"/>
<path d="M-12.4416 0V10.5084H-20.1623V0H-12.4416Z" fill="black"/>
<path d="M-35.6039 0V10.5084H-43.2792V0H-35.6039Z" fill="black"/>
<path d="M-43.2792 0V10.5084H-51V0H-43.2792Z" fill="black"/>
<path d="M41.6039 0V10.5084H33.8831V0H41.6039Z" fill="white"/>
<path d="M33.8831 0V10.5084H26.1623V0H33.8831Z" fill="white"/>
<path d="M10.7208 0V10.5084H3V0H10.7208Z" fill="white"/>
<path d="M3 0V10.5084H-4.72083V0H3Z" fill="white"/>
<path d="M-20.1623 0V10.5084H-27.8832V0H-20.1623Z" fill="white"/>
<path d="M-27.8832 0V10.5084H-35.6039V0H-27.8832Z" fill="white"/>
<path d="M165 10.5084V21H157.279V10.5084H165Z" fill="black"/>
<path d="M149.604 10.5084V21H141.883V10.5084H149.604Z" fill="black"/>
<path d="M134.162 10.5084V21H126.442V10.5084H134.162Z" fill="black"/>
<path d="M118.721 10.5084V21H111V10.5084H118.721Z" fill="black"/>
<path d="M103.279 10.5084V21H95.5584V10.5084H103.279Z" fill="black"/>
<path d="M87.8377 10.5084V21H80.1168V10.5084H87.8377Z" fill="black"/>
<path d="M72.3961 10.5084V21H64.7208V10.5084H72.3961Z" fill="black"/>
<path d="M157.279 10.5084V21H149.604V10.5084H157.279Z" fill="white"/>
<path d="M141.883 10.5084V21H134.162V10.5084H141.883Z" fill="white"/>
<path d="M126.442 10.5084V21H118.721V10.5084H126.442Z" fill="white"/>
<path d="M111 10.5084V21H103.279V10.5084H111Z" fill="white"/>
<path d="M95.5584 10.5084V21H87.8377V10.5084H95.5584Z" fill="white"/>
<path d="M80.1168 10.5084V21H72.3961V10.5084H80.1168Z" fill="white"/>
<path d="M64.7208 10.5084V21H57V10.5084H64.7208Z" fill="white"/>
<path d="M165 0V10.5084H157.279V0H165Z" fill="black"/>
<path d="M157.279 0V10.5084H149.604V0H157.279Z" fill="black"/>
<path d="M134.162 0V10.5084H126.442V0H134.162Z" fill="black"/>
<path d="M126.442 0V10.5084H118.721V0H126.442Z" fill="black"/>
<path d="M103.279 0V10.5084H95.5584V0H103.279Z" fill="black"/>
<path d="M95.5584 0V10.5084H87.8377V0H95.5584Z" fill="black"/>
<path d="M72.3961 0V10.5084H64.7208V0H72.3961Z" fill="black"/>
<path d="M64.7208 0V10.5084H57V0H64.7208Z" fill="black"/>
<path d="M149.604 0V10.5084H141.883V0H149.604Z" fill="white"/>
<path d="M141.883 0V10.5084H134.162V0H141.883Z" fill="white"/>
<path d="M118.721 0V10.5084H111V0H118.721Z" fill="white"/>
<path d="M111 0V10.5084H103.279V0H111Z" fill="white"/>
<path d="M87.8377 0V10.5084H80.1168V0H87.8377Z" fill="white"/>
<path d="M80.1168 0V10.5084H72.3961V0H80.1168Z" fill="white"/>
<path d="M273 10.5084V21H265.279V10.5084H273Z" fill="black"/>
<path d="M257.604 10.5084V21H249.883V10.5084H257.604Z" fill="black"/>
<path d="M242.162 10.5084V21H234.442V10.5084H242.162Z" fill="black"/>
<path d="M226.721 10.5084V21H219V10.5084H226.721Z" fill="black"/>
<path d="M211.279 10.5084V21H203.558V10.5084H211.279Z" fill="black"/>
<path d="M195.838 10.5084V21H188.117V10.5084H195.838Z" fill="black"/>
<path d="M180.396 10.5084V21H172.721V10.5084H180.396Z" fill="black"/>
<path d="M265.279 10.5084V21H257.604V10.5084H265.279Z" fill="white"/>
<path d="M249.883 10.5084V21H242.162V10.5084H249.883Z" fill="white"/>
<path d="M234.442 10.5084V21H226.721V10.5084H234.442Z" fill="white"/>
<path d="M219 10.5084V21H211.279V10.5084H219Z" fill="white"/>
<path d="M203.558 10.5084V21H195.838V10.5084H203.558Z" fill="white"/>
<path d="M188.117 10.5084V21H180.396V10.5084H188.117Z" fill="white"/>
<path d="M172.721 10.5084V21H165V10.5084H172.721Z" fill="white"/>
<path d="M273 0V10.5084H265.279V0H273Z" fill="black"/>
<path d="M265.279 0V10.5084H257.604V0H265.279Z" fill="black"/>
<path d="M242.162 0V10.5084H234.442V0H242.162Z" fill="black"/>
<path d="M234.442 0V10.5084H226.721V0H234.442Z" fill="black"/>
<path d="M211.279 0V10.5084H203.558V0H211.279Z" fill="black"/>
<path d="M203.558 0V10.5084H195.838V0H203.558Z" fill="black"/>
<path d="M180.396 0V10.5084H172.721V0H180.396Z" fill="black"/>
<path d="M172.721 0V10.5084H165V0H172.721Z" fill="black"/>
<path d="M257.604 0V10.5084H249.883V0H257.604Z" fill="white"/>
<path d="M249.883 0V10.5084H242.162V0H249.883Z" fill="white"/>
<path d="M226.721 0V10.5084H219V0H226.721Z" fill="white"/>
<path d="M219 0V10.5084H211.279V0H219Z" fill="white"/>
<path d="M195.838 0V10.5084H188.117V0H195.838Z" fill="white"/>
<path d="M188.117 0V10.5084H180.396V0H188.117Z" fill="white"/>
<path d="M381 10.5084V21H373.279V10.5084H381Z" fill="black"/>
<path d="M365.604 10.5084V21H357.883V10.5084H365.604Z" fill="black"/>
<path d="M350.162 10.5084V21H342.442V10.5084H350.162Z" fill="black"/>
<path d="M334.721 10.5084V21H327V10.5084H334.721Z" fill="black"/>
<path d="M319.279 10.5084V21H311.558V10.5084H319.279Z" fill="black"/>
<path d="M303.838 10.5084V21H296.117V10.5084H303.838Z" fill="black"/>
<path d="M288.396 10.5084V21H280.721V10.5084H288.396Z" fill="black"/>
<path d="M373.279 10.5084V21H365.604V10.5084H373.279Z" fill="white"/>
<path d="M357.883 10.5084V21H350.162V10.5084H357.883Z" fill="white"/>
<path d="M342.442 10.5084V21H334.721V10.5084H342.442Z" fill="white"/>
<path d="M327 10.5084V21H319.279V10.5084H327Z" fill="white"/>
<path d="M311.558 10.5084V21H303.838V10.5084H311.558Z" fill="white"/>
<path d="M296.117 10.5084V21H288.396V10.5084H296.117Z" fill="white"/>
<path d="M280.721 10.5084V21H273V10.5084H280.721Z" fill="white"/>
<path d="M381 0V10.5084H373.279V0H381Z" fill="black"/>
<path d="M373.279 0V10.5084H365.604V0H373.279Z" fill="black"/>
<path d="M350.162 0V10.5084H342.442V0H350.162Z" fill="black"/>
<path d="M342.442 0V10.5084H334.721V0H342.442Z" fill="black"/>
<path d="M319.279 0V10.5084H311.558V0H319.279Z" fill="black"/>
<path d="M311.558 0V10.5084H303.838V0H311.558Z" fill="black"/>
<path d="M288.396 0V10.5084H280.721V0H288.396Z" fill="black"/>
<path d="M280.721 0V10.5084H273V0H280.721Z" fill="black"/>
<path d="M365.604 0V10.5084H357.883V0H365.604Z" fill="white"/>
<path d="M357.883 0V10.5084H350.162V0H357.883Z" fill="white"/>
<path d="M334.721 0V10.5084H327V0H334.721Z" fill="white"/>
<path d="M327 0V10.5084H319.279V0H327Z" fill="white"/>
<path d="M303.838 0V10.5084H296.117V0H303.838Z" fill="white"/>
<path d="M296.117 0V10.5084H288.396V0H296.117Z" fill="white"/>
<path d="M489 10.5084V21H481.279V10.5084H489Z" fill="black"/>
<path d="M473.604 10.5084V21H465.883V10.5084H473.604Z" fill="black"/>
<path d="M458.162 10.5084V21H450.442V10.5084H458.162Z" fill="black"/>
<path d="M442.721 10.5084V21H435V10.5084H442.721Z" fill="black"/>
<path d="M427.279 10.5084V21H419.558V10.5084H427.279Z" fill="black"/>
<path d="M411.838 10.5084V21H404.117V10.5084H411.838Z" fill="black"/>
<path d="M396.396 10.5084V21H388.721V10.5084H396.396Z" fill="black"/>
<path d="M481.279 10.5084V21H473.604V10.5084H481.279Z" fill="white"/>
<path d="M465.883 10.5084V21H458.162V10.5084H465.883Z" fill="white"/>
<path d="M450.442 10.5084V21H442.721V10.5084H450.442Z" fill="white"/>
<path d="M435 10.5084V21H427.279V10.5084H435Z" fill="white"/>
<path d="M419.558 10.5084V21H411.838V10.5084H419.558Z" fill="white"/>
<path d="M404.117 10.5084V21H396.396V10.5084H404.117Z" fill="white"/>
<path d="M388.721 10.5084V21H381V10.5084H388.721Z" fill="white"/>
<path d="M489 0V10.5084H481.279V0H489Z" fill="black"/>
<path d="M481.279 0V10.5084H473.604V0H481.279Z" fill="black"/>
<path d="M458.162 0V10.5084H450.442V0H458.162Z" fill="black"/>
<path d="M450.442 0V10.5084H442.721V0H450.442Z" fill="black"/>
<path d="M427.279 0V10.5084H419.558V0H427.279Z" fill="black"/>
<path d="M419.558 0V10.5084H411.838V0H419.558Z" fill="black"/>
<path d="M396.396 0V10.5084H388.721V0H396.396Z" fill="black"/>
<path d="M388.721 0V10.5084H381V0H388.721Z" fill="black"/>
<path d="M473.604 0V10.5084H465.883V0H473.604Z" fill="white"/>
<path d="M465.883 0V10.5084H458.162V0H465.883Z" fill="white"/>
<path d="M442.721 0V10.5084H435V0H442.721Z" fill="white"/>
<path d="M435 0V10.5084H427.279V0H435Z" fill="white"/>
<path d="M411.838 0V10.5084H404.117V0H411.838Z" fill="white"/>
<path d="M404.117 0V10.5084H396.396V0H404.117Z" fill="white"/>
<path d="M597 10.5084V21H589.279V10.5084H597Z" fill="black"/>
<path d="M581.604 10.5084V21H573.883V10.5084H581.604Z" fill="black"/>
<path d="M566.162 10.5084V21H558.442V10.5084H566.162Z" fill="black"/>
<path d="M550.721 10.5084V21H543V10.5084H550.721Z" fill="black"/>
<path d="M535.279 10.5084V21H527.558V10.5084H535.279Z" fill="black"/>
<path d="M519.838 10.5084V21H512.117V10.5084H519.838Z" fill="black"/>
<path d="M504.396 10.5084V21H496.721V10.5084H504.396Z" fill="black"/>
<path d="M589.279 10.5084V21H581.604V10.5084H589.279Z" fill="white"/>
<path d="M573.883 10.5084V21H566.162V10.5084H573.883Z" fill="white"/>
<path d="M558.442 10.5084V21H550.721V10.5084H558.442Z" fill="white"/>
<path d="M543 10.5084V21H535.279V10.5084H543Z" fill="white"/>
<path d="M527.558 10.5084V21H519.838V10.5084H527.558Z" fill="white"/>
<path d="M512.117 10.5084V21H504.396V10.5084H512.117Z" fill="white"/>
<path d="M496.721 10.5084V21H489V10.5084H496.721Z" fill="white"/>
<path d="M597 0V10.5084H589.279V0H597Z" fill="black"/>
<path d="M589.279 0V10.5084H581.604V0H589.279Z" fill="black"/>
<path d="M566.162 0V10.5084H558.442V0H566.162Z" fill="black"/>
<path d="M558.442 0V10.5084H550.721V0H558.442Z" fill="black"/>
<path d="M535.279 0V10.5084H527.558V0H535.279Z" fill="black"/>
<path d="M527.558 0V10.5084H519.838V0H527.558Z" fill="black"/>
<path d="M504.396 0V10.5084H496.721V0H504.396Z" fill="black"/>
<path d="M496.721 0V10.5084H489V0H496.721Z" fill="black"/>
<path d="M581.604 0V10.5084H573.883V0H581.604Z" fill="white"/>
<path d="M573.883 0V10.5084H566.162V0H573.883Z" fill="white"/>
<path d="M550.721 0V10.5084H543V0H550.721Z" fill="white"/>
<path d="M543 0V10.5084H535.279V0H543Z" fill="white"/>
<path d="M519.838 0V10.5084H512.117V0H519.838Z" fill="white"/>
<path d="M512.117 0V10.5084H504.396V0H512.117Z" fill="white"/>
<path d="M705 10.5084V21H697.279V10.5084H705Z" fill="black"/>
<path d="M689.604 10.5084V21H681.883V10.5084H689.604Z" fill="black"/>
<path d="M674.162 10.5084V21H666.442V10.5084H674.162Z" fill="black"/>
<path d="M658.721 10.5084V21H651V10.5084H658.721Z" fill="black"/>
<path d="M643.279 10.5084V21H635.558V10.5084H643.279Z" fill="black"/>
<path d="M627.838 10.5084V21H620.117V10.5084H627.838Z" fill="black"/>
<path d="M612.396 10.5084V21H604.721V10.5084H612.396Z" fill="black"/>
<path d="M697.279 10.5084V21H689.604V10.5084H697.279Z" fill="white"/>
<path d="M681.883 10.5084V21H674.162V10.5084H681.883Z" fill="white"/>
<path d="M666.442 10.5084V21H658.721V10.5084H666.442Z" fill="white"/>
<path d="M651 10.5084V21H643.279V10.5084H651Z" fill="white"/>
<path d="M635.558 10.5084V21H627.838V10.5084H635.558Z" fill="white"/>
<path d="M620.117 10.5084V21H612.396V10.5084H620.117Z" fill="white"/>
<path d="M604.721 10.5084V21H597V10.5084H604.721Z" fill="white"/>
<path d="M705 0V10.5084H697.279V0H705Z" fill="black"/>
<path d="M697.279 0V10.5084H689.604V0H697.279Z" fill="black"/>
<path d="M674.162 0V10.5084H666.442V0H674.162Z" fill="black"/>
<path d="M666.442 0V10.5084H658.721V0H666.442Z" fill="black"/>
<path d="M643.279 0V10.5084H635.558V0H643.279Z" fill="black"/>
<path d="M635.558 0V10.5084H627.838V0H635.558Z" fill="black"/>
<path d="M612.396 0V10.5084H604.721V0H612.396Z" fill="black"/>
<path d="M604.721 0V10.5084H597V0H604.721Z" fill="black"/>
<path d="M689.604 0V10.5084H681.883V0H689.604Z" fill="white"/>
<path d="M681.883 0V10.5084H674.162V0H681.883Z" fill="white"/>
<path d="M658.721 0V10.5084H651V0H658.721Z" fill="white"/>
<path d="M651 0V10.5084H643.279V0H651Z" fill="white"/>
<path d="M627.838 0V10.5084H620.117V0H627.838Z" fill="white"/>
<path d="M620.117 0V10.5084H612.396V0H620.117Z" fill="white"/>
</svg>
