<svg width="1581" height="792" viewBox="0 0 1581 792" fill="none" xmlns="http://www.w3.org/2000/svg">
<g clip-path="url(#clip0_104_4431)">
<path d="M0 788.622V595.377H138.173V622.416H31.5771V679.595H128.016V706.355H31.5771V788.61H0V788.622Z" fill="white"/>
<path d="M424.958 788.622V622.428H360.944V595.388H521.117V622.428H456.546V788.622H424.958Z" fill="white"/>
<path d="M629.388 792C612.846 792 598.558 789.324 586.526 783.972C574.493 778.62 565.285 770.313 558.889 759.04C552.493 747.767 549.301 733.506 549.301 716.223V595.377H580.878V717.071C580.878 733.038 585.108 745.058 593.569 753.13C602.03 761.203 613.962 765.24 629.376 765.24C644.981 765.24 657.147 761.203 665.898 753.13C674.638 745.058 679.014 733.038 679.014 717.071V595.377H710.591V716.223C710.591 733.506 707.354 747.767 700.857 759.04C694.372 770.302 685.063 778.62 672.941 783.972C660.831 789.324 646.309 792 629.388 792Z" fill="white"/>
<path d="M755.44 788.622V595.377H857.237C870.955 595.377 882.329 597.819 891.359 602.703C900.378 607.587 907.153 614.388 911.662 623.13C916.172 631.861 918.426 642.052 918.426 653.693C918.426 666.649 915.513 677.922 909.687 687.5C903.86 697.078 895.589 704.114 884.874 708.63L925.202 788.633H890.801L854.145 713.982H787.028V788.633H755.44V788.622ZM787.028 687.489H854.703C864.849 687.489 872.707 684.49 878.243 678.48C883.791 672.47 886.559 664.118 886.559 653.414C886.559 646.847 885.331 641.26 882.898 636.655C880.454 632.061 876.882 628.538 872.183 626.096C867.483 623.654 861.657 622.439 854.703 622.439H787.028V687.489Z" fill="white"/>
<path d="M1249.2 792C1238.67 792 1228.52 790.919 1218.75 788.767C1208.97 786.615 1200.32 783.136 1192.81 778.341C1185.29 773.558 1179.37 767.447 1175.04 760.033C1170.71 752.618 1168.55 743.742 1168.55 733.417C1168.55 732.291 1168.6 731.209 1168.7 730.183C1168.79 729.158 1168.84 728.254 1168.84 727.507H1200.42C1200.42 728.076 1200.38 728.912 1200.28 730.038C1200.18 731.165 1200.13 732.112 1200.13 732.859C1200.13 739.806 1202.2 745.727 1206.34 750.611C1210.47 755.494 1216.25 759.163 1223.68 761.594C1231.11 764.036 1239.61 765.251 1249.2 765.251C1254.46 765.251 1259.53 764.927 1264.42 764.27C1269.31 763.612 1273.78 762.575 1277.82 761.17C1281.86 759.765 1285.39 757.981 1288.39 755.818C1291.39 753.666 1293.75 751.079 1295.44 748.068C1297.14 745.069 1297.98 741.59 1297.98 737.643C1297.98 731.633 1296.23 726.66 1292.76 722.713C1289.28 718.766 1284.58 715.487 1278.67 712.856C1272.75 710.225 1266.06 707.883 1258.64 705.809C1251.21 703.746 1243.55 701.683 1235.66 699.61C1227.77 697.547 1220.1 695.105 1212.68 692.284C1205.24 689.463 1198.58 686.04 1192.65 682.003C1186.73 677.967 1182.03 672.894 1178.55 666.794C1175.07 660.695 1173.34 653.225 1173.34 644.405C1173.34 635.953 1175.13 628.449 1178.7 621.87C1182.27 615.303 1187.44 609.806 1194.21 605.39C1200.98 600.975 1209.06 597.641 1218.47 595.388C1227.87 593.136 1238.49 592.01 1250.34 592.01C1260.48 592.01 1270.07 593.091 1279.1 595.255C1288.12 597.418 1296.02 600.752 1302.79 605.256C1309.55 609.761 1314.86 615.492 1318.72 622.439C1322.57 629.385 1324.5 637.648 1324.5 647.226V650.604H1293.2V646.947C1293.2 640.937 1291.41 635.864 1287.84 631.738C1284.27 627.613 1279.28 624.412 1272.9 622.16C1266.5 619.908 1259.08 618.782 1250.62 618.782C1240.65 618.782 1232.29 619.763 1225.52 621.736C1218.76 623.71 1213.64 626.431 1210.15 629.909C1206.67 633.388 1204.94 637.559 1204.94 642.442C1204.94 647.895 1206.73 652.355 1210.3 655.823C1213.87 659.301 1218.61 662.256 1224.54 664.698C1230.47 667.14 1237.13 669.348 1244.57 671.321C1251.99 673.295 1259.6 675.358 1267.4 677.521C1275.21 679.684 1282.82 682.171 1290.24 684.98C1297.66 687.801 1304.34 691.269 1310.27 695.406C1316.19 699.543 1320.94 704.661 1324.51 710.76C1328.08 716.87 1329.87 724.33 1329.87 733.149C1329.87 747.054 1326.38 758.36 1319.43 767.091C1312.48 775.821 1302.93 782.166 1290.81 786.102C1278.67 790.027 1264.79 792 1249.2 792Z" fill="white"/>
<path d="M996.503 735.123H968.04V763.556H996.503V735.123Z" fill="white"/>
<path d="M1081.9 592.947H996.502V621.38H1081.9V592.947Z" fill="white"/>
<path d="M1081.9 763.567H996.502V792H1081.9V763.567Z" fill="white"/>
<path d="M1110.37 735.123H1081.9V763.556H1110.37V735.123Z" fill="white"/>
<path d="M996.503 621.38H968.04V649.813H996.503V621.38Z" fill="white"/>
<path d="M1110.37 621.38H1081.9V649.813H1110.37V621.38Z" fill="white"/>
<path d="M1138.83 649.824H1110.36V735.134H1138.83V649.824Z" fill="white"/>
<path d="M968.028 649.824H939.565V735.134H968.028V649.824Z" fill="white"/>
<path d="M204.286 766.054H194.698C176.66 766.054 172.731 751.447 172.731 733.439V595.377H204.286V766.054Z" fill="white"/>
<path d="M301.216 766.054H302.31V595.377H333.865V733.428C333.865 751.447 319.254 766.054 301.216 766.054Z" fill="white"/>
<path d="M274.662 792H231.945C216.675 792 204.286 779.634 204.286 764.37V766.042H302.321V764.37C302.321 779.634 289.931 792 274.662 792Z" fill="white"/>
<path d="M203.694 516.701V323.468H353.71V350.507H235.282V404.307H341.309V431.346H235.282V489.651H355.407V516.69H203.694V516.701Z" fill="white"/>
<path d="M393.748 516.701V323.468H425.325V516.701H393.748Z" fill="white"/>
<path d="M471.011 516.701V323.468H501.46L589.718 444.593C590.845 445.719 592.118 447.313 593.524 449.376C594.93 451.45 596.292 453.513 597.609 455.576C598.926 457.639 599.864 459.333 600.433 460.649H601.84C601.84 457.828 601.84 455.107 601.84 452.476C601.84 449.845 601.84 447.224 601.84 444.593V323.468H632.289V516.701H602.967L513.582 394.16C512.075 391.908 510.2 389.042 507.946 385.564C505.691 382.096 503.994 379.42 502.867 377.535H501.46C501.46 380.167 501.46 382.843 501.46 385.564C501.46 388.284 501.46 391.15 501.46 394.16V516.701H471.011Z" fill="white"/>
<path d="M729.309 516.701L657.973 323.468H692.095L740.035 458.397C740.973 460.649 741.91 463.281 742.859 466.28C743.797 469.291 744.734 472.156 745.683 474.866C746.621 477.586 747.469 479.984 748.217 482.046H749.623C750.371 479.984 751.219 477.631 752.157 475C753.095 472.368 754.032 469.647 754.981 466.826C755.919 464.005 756.856 461.285 757.805 458.653L805.176 323.446H838.171L766.534 516.701H729.309Z" fill="white"/>
<path d="M863.821 516.701V323.468H1013.84V350.507H895.398V404.307H1001.42V431.346H895.398V489.651H1015.52V516.69H863.821V516.701Z" fill="white"/>
<path d="M1388.03 516.701L1463.89 323.457H1504.21L1580.35 516.701H1546.51L1529.31 471.911H1437.66L1420.46 516.701H1388.03ZM1447.81 445.15H1518.87L1497.16 388.53C1496.59 386.835 1495.75 384.493 1494.63 381.483C1493.5 378.483 1492.33 375.194 1491.1 371.626C1489.87 368.058 1488.65 364.445 1487.44 360.777C1486.21 357.119 1485.14 353.785 1484.19 350.775H1482.49C1481.37 354.343 1479.96 358.569 1478.26 363.453C1476.57 368.336 1474.93 373.031 1473.33 377.535C1471.73 382.04 1470.37 385.709 1469.24 388.518L1447.81 445.15Z" fill="white"/>
<path d="M31.6664 444.871H0V516.701H31.6664V444.871Z" fill="white"/>
<path d="M131.208 414.164H137.448C151.601 414.164 163.076 402.701 163.076 388.563V376.108C163.076 361.969 151.601 350.507 137.448 350.507H131.208H131.197C131.197 350.552 131.208 350.596 131.208 350.652V414.164Z" fill="white"/>
<path d="M131.197 350.507C131.119 335.555 118.975 323.468 103.996 323.468H0V414.175H31.6664V350.518H131.197V350.507Z" fill="white"/>
<path d="M163.086 516.701V476.415C163.086 458.988 148.944 444.86 131.498 444.86H131.208V516.69H163.086V516.701Z" fill="white"/>
<path d="M131.209 414.164H31.6665V444.871H131.209V414.164Z" fill="white"/>
<path d="M1307.99 516.701V350.507H1243.97V323.468H1404.15V350.507H1339.58V516.701H1307.99Z" fill="white"/>
<path d="M1082.34 348.991V320.558H1053.88V348.991V377.435V405.868V434.301V462.734V491.178V519.612H1082.34V491.178V462.734V434.301V405.868V377.435H1110.81V348.991H1082.34Z" fill="white"/>
<path d="M1139.28 377.435H1110.81V405.868H1139.28V377.435Z" fill="white"/>
<path d="M1167.74 405.868H1139.28V434.301H1167.74V405.868Z" fill="white"/>
<path d="M1196.2 320.558V348.991V377.435V405.868V434.301H1167.74V462.734H1196.2V491.178V519.612H1224.68V491.178V462.734V434.301V405.868V377.435V348.991V320.558H1196.2Z" fill="white"/>
<path d="M0 244.792V51.5476H150.016V78.5869H31.5771V132.387H137.604V159.426H31.5771V217.731H151.702V244.77H0V244.792Z" fill="white"/>
<path d="M190.054 244.792V51.5476H264.783C284.707 51.5476 301.718 54.9819 315.826 61.8282C329.924 68.6855 340.784 79.2002 348.397 93.3721C356.009 107.555 359.815 125.819 359.815 148.164C359.815 170.331 356.009 188.539 348.397 202.812C340.784 217.084 329.924 227.654 315.826 234.5C301.729 241.358 284.707 244.781 264.783 244.781H190.054V244.792ZM221.642 217.753H264.504C274.471 217.753 283.345 216.437 291.147 213.806C298.949 211.174 305.524 207.138 310.882 201.697C316.239 196.255 320.28 189.353 323.003 180.991C325.727 172.639 327.089 162.726 327.089 151.275V145.354C327.089 133.714 325.727 123.712 323.003 115.36C320.28 107.009 316.239 100.107 310.882 94.6544C305.524 89.2131 298.938 85.1767 291.147 82.5453C283.345 79.9138 274.46 78.5981 264.504 78.5981H221.642V217.753Z" fill="white"/>
<path d="M475.431 248.171C458.889 248.171 444.602 245.495 432.569 240.142C420.537 234.79 411.328 226.483 404.932 215.211C398.537 203.938 395.344 189.677 395.344 172.394V51.5476H426.921V173.241C426.921 189.208 431.152 201.228 439.612 209.301C448.073 217.374 460.005 221.41 475.42 221.41C491.024 221.41 503.191 217.374 511.942 209.301C520.682 201.228 525.057 189.208 525.057 173.241V51.5476H556.634V172.394C556.634 189.677 553.386 203.938 546.901 215.211C540.416 226.472 531.107 234.79 518.985 240.142C506.863 245.495 492.341 248.171 475.431 248.171Z" fill="white"/>
<path d="M769.984 244.792L845.84 51.5476H886.168L962.304 244.792H928.461L911.26 200.002H819.61L802.409 244.792H769.984ZM829.767 173.241H900.824L879.114 116.62C878.545 114.925 877.708 112.584 876.58 109.573C875.453 106.574 874.281 103.285 873.053 99.7166C871.825 96.1485 870.609 92.5359 869.392 88.8674C868.164 85.2102 867.093 81.8763 866.144 78.8657H864.447C863.32 82.4338 861.913 86.6597 860.217 91.5435C858.52 96.4273 856.879 101.122 855.283 105.626C853.687 110.131 852.325 113.799 851.198 116.609L829.767 173.241Z" fill="white"/>
<path d="M1066.91 248.17C1047.18 248.17 1030.39 244.647 1016.57 237.611C1002.75 230.564 992.184 219.626 984.85 204.796C977.517 189.966 973.856 171.089 973.856 148.175C973.856 114.368 982.082 89.2573 998.535 72.8219C1014.99 56.3865 1037.87 48.1688 1067.2 48.1688C1083.37 48.1688 1097.89 50.8894 1110.77 56.3419C1123.64 61.7943 1133.8 69.9117 1141.22 80.7051C1148.64 91.5097 1152.36 105.258 1152.36 121.972H1120.21C1120.21 111.647 1118.05 103.006 1113.73 96.059C1109.4 89.1124 1103.25 83.8495 1095.25 80.2814C1087.26 76.7133 1078.01 74.9293 1067.48 74.9293C1054.32 74.9293 1043.18 77.5161 1034.06 82.6787C1024.94 87.8412 1018.08 95.5906 1013.48 105.916C1008.87 116.241 1006.57 129.398 1006.57 145.354V151.554C1006.57 167.521 1008.87 180.667 1013.48 190.992C1018.08 201.317 1024.9 208.977 1033.93 213.95C1042.95 218.923 1054.13 221.41 1067.48 221.41C1078.39 221.41 1087.88 219.67 1095.97 216.203C1104.05 212.735 1110.3 207.517 1114.72 200.57C1119.14 193.623 1121.35 184.982 1121.35 174.657H1152.37C1152.37 191.371 1148.65 205.175 1141.23 216.069C1133.8 226.963 1123.65 235.035 1110.78 240.298C1097.89 245.539 1083.28 248.17 1066.91 248.17ZM1066.91 295.213C1062.4 295.213 1057.75 295.023 1052.95 294.644C1048.16 294.265 1043.79 293.708 1039.83 292.95V280.55H1066.34C1069.92 280.55 1072.73 279.982 1074.8 278.856C1076.87 277.729 1077.91 275.845 1077.91 273.225C1077.91 270.972 1077.15 269.278 1075.65 268.151C1074.15 267.025 1071.14 266.457 1066.63 266.457H1053.38L1057.62 241.67H1076.79L1074.82 254.905C1079.7 255.095 1084.21 255.842 1088.36 257.157C1092.48 258.473 1095.73 260.402 1098.09 262.933C1100.43 265.464 1101.62 268.887 1101.62 273.214C1101.62 277.718 1100.53 281.387 1098.37 284.197C1096.2 287.018 1093.39 289.214 1089.91 290.82C1086.42 292.414 1082.66 293.54 1078.62 294.198C1074.57 294.878 1070.67 295.213 1066.91 295.213Z" fill="white"/>
<path d="M1166.45 244.792L1242.31 51.5475H1282.64L1358.77 244.792H1324.93L1307.73 200.001H1216.08L1198.88 244.792H1166.45ZM1216.93 30.139C1216.93 24.6977 1217.82 19.669 1219.61 15.0639C1221.39 10.4701 1224.16 6.80163 1227.92 4.08098C1231.68 1.36033 1236.47 0 1242.3 0C1247.19 0 1251.79 0.802816 1256.12 2.3973C1260.44 3.99178 1264.72 5.59741 1268.94 7.18074C1273.17 8.77522 1277.45 9.57804 1281.77 9.57804C1284.4 9.57804 1286.51 8.83097 1288.11 7.32569C1289.7 5.82041 1290.69 3.37852 1291.07 0H1308.55C1308.36 5.45246 1307.37 10.4255 1305.59 14.9301C1303.8 19.4348 1301.08 23.1033 1297.41 25.9131C1293.74 28.7341 1288.9 30.139 1282.88 30.139C1278.18 30.139 1273.62 29.2916 1269.21 27.6079C1264.79 25.9131 1260.52 24.274 1256.39 22.6795C1252.24 21.0851 1248.11 20.2822 1243.97 20.2822C1241.15 20.2822 1238.94 21.0851 1237.34 22.6795C1235.75 24.274 1234.75 26.7605 1234.39 30.139H1216.93ZM1226.24 173.241H1297.29L1275.58 116.62C1275.02 114.925 1274.18 112.584 1273.05 109.573C1271.92 106.574 1270.75 103.284 1269.52 99.7164C1268.3 96.1483 1267.08 92.5357 1265.86 88.8672C1264.63 85.21 1263.56 81.8761 1262.61 78.8655H1260.92C1259.79 82.4336 1258.38 86.6595 1256.69 91.5433C1254.99 96.4271 1253.35 101.121 1251.75 105.626C1250.16 110.131 1248.8 113.799 1247.67 116.609L1226.24 173.241Z" fill="white"/>
<path d="M670.899 48.6486H642.436V77.0817H727.836V48.6486H670.899Z" fill="white"/>
<path d="M642.437 190.825H613.974V219.258H642.437V190.825Z" fill="white"/>
<path d="M727.836 219.258H642.436V247.691H727.836V219.258Z" fill="white"/>
<path d="M756.3 190.825H727.837V219.258H756.3V190.825Z" fill="white"/>
<path d="M642.437 77.0818H613.974V105.515H642.437V77.0818Z" fill="white"/>
<path d="M613.962 105.515H585.5V190.825H613.962V105.515Z" fill="white"/>
<path d="M756.3 77.0818H727.837V105.515H756.3V77.0818Z" fill="white"/>
<path d="M1403.81 106.384C1403.81 98.4338 1405.41 90.8628 1408.3 83.9497C1382.67 94.0406 1364.52 118.973 1364.52 148.164C1364.52 177.355 1382.67 202.287 1408.3 212.378C1405.41 205.476 1403.81 197.894 1403.81 189.944V106.384Z" fill="white"/>
<path d="M1515.88 83.9497C1518.77 90.8516 1520.37 98.4338 1520.37 106.384V189.955C1520.37 197.905 1518.77 205.476 1515.88 212.389C1541.51 202.298 1559.66 177.366 1559.66 148.175C1559.66 118.984 1541.51 94.0406 1515.88 83.9497Z" fill="white"/>
<path d="M1490.56 79.1553C1499.5 79.1553 1508.03 80.8724 1515.87 83.9499C1507.07 62.9317 1486.31 48.1688 1462.08 48.1688C1437.86 48.1688 1417.08 62.9429 1408.29 83.9499C1416.12 80.8613 1424.66 79.1553 1433.59 79.1553H1490.56Z" fill="white"/>
<path d="M1433.61 217.184C1424.66 217.184 1416.14 215.467 1408.3 212.389C1417.1 233.407 1437.86 248.17 1462.09 248.17C1486.31 248.17 1507.08 233.396 1515.88 212.389C1508.04 215.478 1499.51 217.184 1490.58 217.184H1433.61Z" fill="white"/>
</g>
<defs>
<clipPath id="clip0_104_4431">
<rect width="1580.35" height="792" fill="white"/>
</clipPath>
</defs>
</svg>
