<svg width="109" height="48" viewBox="0 0 109 48" fill="none" xmlns="http://www.w3.org/2000/svg">
<path d="M108.5 24.0192V48H100.779V24.0192H108.5Z" fill="black"/>
<path d="M93.1039 24.0192V48H85.3831V24.0192H93.1039Z" fill="black"/>
<path d="M77.6623 24.0192V48H69.9415V24.0192H77.6623Z" fill="black"/>
<path d="M62.2208 24.0192V48H54.5V24.0192H62.2208Z" fill="black"/>
<path d="M46.7792 24.0192V48H39.0584V24.0192H46.7792Z" fill="black"/>
<path d="M31.3377 24.0192V48H23.6168V24.0192H31.3377Z" fill="black"/>
<path d="M15.8961 24.0192V48H8.22076V24.0192H15.8961Z" fill="black"/>
<path d="M100.779 24.0192V48H93.1039V24.0192H100.779Z" fill="white"/>
<path d="M85.3831 24.0192V48H77.6623V24.0192H85.3831Z" fill="white"/>
<path d="M69.9415 24.0192V48H62.2208V24.0192H69.9415Z" fill="white"/>
<path d="M54.5 24.0192V48H46.7792V24.0192H54.5Z" fill="white"/>
<path d="M39.0584 24.0192V48H31.3377V24.0192H39.0584Z" fill="white"/>
<path d="M23.6168 24.0192V48H15.8961V24.0192H23.6168Z" fill="white"/>
<path d="M8.22076 24.0192V48H0.5V24.0192H8.22076Z" fill="white"/>
<path d="M108.5 0V24.0192H100.779V0H108.5Z" fill="black"/>
<path d="M100.779 0V24.0192H93.1039V0H100.779Z" fill="black"/>
<path d="M77.6623 0V24.0192H69.9415V0H77.6623Z" fill="black"/>
<path d="M69.9415 0V24.0192H62.2208V0H69.9415Z" fill="black"/>
<path d="M46.7792 0V24.0192H39.0584V0H46.7792Z" fill="black"/>
<path d="M39.0584 0V24.0192H31.3377V0H39.0584Z" fill="black"/>
<path d="M15.8961 0V24.0192H8.22076V0H15.8961Z" fill="black"/>
<path d="M8.22076 0V24.0192H0.5V0H8.22076Z" fill="black"/>
<path d="M93.1039 0V24.0192H85.3831V0H93.1039Z" fill="white"/>
<path d="M85.3831 0V24.0192H77.6623V0H85.3831Z" fill="white"/>
<path d="M62.2208 0V24.0192H54.5V0H62.2208Z" fill="white"/>
<path d="M54.5 0V24.0192H46.7792V0H54.5Z" fill="white"/>
<path d="M31.3377 0V24.0192H23.6168V0H31.3377Z" fill="white"/>
<path d="M23.6168 0V24.0192H15.8961V0H23.6168Z" fill="white"/>
</svg>
