<svg width="3806" height="237" viewBox="0 0 3806 237" fill="none" xmlns="http://www.w3.org/2000/svg">
<path d="M2735.95 196.511V41.3813H2847.11V63.087H2761.35V108.997H2838.95V130.479H2761.35V196.511H2735.95Z" fill="white"/>
<path d="M3077.87 196.511V63.087H3026.37V41.3813H3155.24V63.087H3103.29V196.511H3077.87Z" fill="white"/>
<path d="M3242.37 199.233C3229.06 199.233 3217.57 197.091 3207.88 192.786C3198.19 188.48 3190.78 181.81 3185.66 172.775C3180.51 163.718 3177.94 152.274 3177.94 138.399V41.3813H3203.34V139.068C3203.34 151.873 3206.74 161.532 3213.55 168.024C3220.35 174.515 3229.95 177.75 3242.35 177.75C3254.91 177.75 3264.71 174.515 3271.74 168.024C3278.77 161.532 3282.28 151.895 3282.28 139.068V41.3813H3307.68V138.399C3307.68 152.274 3305.06 163.718 3299.85 172.775C3294.63 181.81 3287.14 188.502 3277.38 192.786C3267.66 197.091 3255.98 199.233 3242.37 199.233Z" fill="white"/>
<path d="M3343.78 196.511V41.3813H3425.7C3436.73 41.3813 3445.89 43.3444 3453.16 47.2706C3460.41 51.1968 3465.88 56.6623 3469.5 63.667C3473.13 70.6717 3474.94 78.8587 3474.94 88.2058C3474.94 98.6013 3472.59 107.658 3467.91 115.332C3463.21 123.029 3456.56 128.672 3447.95 132.286L3480.4 196.511H3452.72L3423.22 136.592H3369.21V196.511H3343.78ZM3423.64 115.332C3431.81 115.332 3438.12 112.923 3442.58 108.104C3447.03 103.286 3449.27 96.5713 3449.27 87.9827C3449.27 82.6957 3448.28 78.2118 3446.31 74.531C3444.34 70.8278 3441.48 68.017 3437.7 66.0539C3433.91 64.0908 3429.21 63.1093 3423.62 63.1093H3369.16V115.332H3423.64Z" fill="white"/>
<path d="M3741.06 199.233C3732.57 199.233 3724.41 198.363 3716.55 196.623C3708.69 194.883 3701.73 192.094 3695.67 188.257C3689.62 184.42 3684.86 179.512 3681.37 173.556C3677.87 167.6 3676.15 160.484 3676.15 152.185C3676.15 151.27 3676.2 150.423 3676.26 149.575C3676.33 148.75 3676.37 148.036 3676.37 147.433H3701.78C3701.78 147.88 3701.73 148.571 3701.67 149.463C3701.58 150.378 3701.55 151.114 3701.55 151.717C3701.55 157.294 3703.21 162.045 3706.54 165.971C3709.88 169.898 3714.51 172.842 3720.49 174.783C3726.46 176.746 3733.31 177.728 3741.01 177.728C3745.24 177.728 3749.34 177.46 3753.25 176.947C3757.19 176.412 3760.78 175.586 3764.04 174.448C3767.29 173.311 3770.13 171.883 3772.55 170.143C3774.97 168.403 3776.87 166.328 3778.21 163.919C3779.58 161.51 3780.25 158.721 3780.25 155.554C3780.25 150.735 3778.84 146.742 3776.04 143.574C3773.24 140.406 3769.46 137.774 3764.69 135.655C3759.92 133.536 3754.55 131.662 3748.58 130.011C3742.6 128.36 3736.45 126.687 3730.09 125.036C3723.73 123.385 3717.58 121.422 3711.6 119.147C3705.63 116.894 3700.26 114.128 3695.49 110.893C3690.72 107.658 3686.94 103.576 3684.14 98.6905C3681.34 93.7828 3679.93 87.8042 3679.93 80.7103C3679.93 73.9287 3681.37 67.9055 3684.25 62.6185C3687.12 57.3538 3691.28 52.9368 3696.74 49.3899C3702.18 45.8429 3708.69 43.1659 3716.26 41.359C3723.82 39.5521 3732.37 38.6374 3741.91 38.6374C3750.08 38.6374 3757.8 39.5074 3765.05 41.2475C3772.3 42.9875 3778.66 45.6644 3784.12 49.2783C3789.56 52.8922 3793.83 57.4877 3796.94 63.0647C3800.03 68.6417 3801.6 75.2671 3801.6 82.9634V85.685H3776.42V82.7626C3776.42 77.9441 3774.99 73.8617 3772.1 70.5602C3769.24 67.2363 3765.21 64.6708 3760.08 62.8639C3754.93 61.0569 3748.96 60.1423 3742.15 60.1423C3734.14 60.1423 3727.4 60.9231 3721.97 62.507C3716.53 64.0908 3712.39 66.277 3709.61 69.0655C3706.81 71.854 3705.4 75.2002 3705.4 79.1264C3705.4 83.4988 3706.84 87.0904 3709.72 89.8789C3712.59 92.6674 3716.42 95.0543 3721.18 96.9951C3725.95 98.9582 3731.32 100.721 3737.3 102.304C3743.27 103.888 3749.41 105.539 3755.67 107.279C3761.94 109.019 3768.07 111.005 3774.05 113.28C3780.02 115.533 3785.4 118.322 3790.16 121.645C3794.93 124.969 3798.73 129.074 3801.62 133.959C3804.49 138.867 3805.94 144.846 3805.94 151.94C3805.94 163.094 3803.14 172.173 3797.55 179.2C3791.95 186.205 3784.28 191.291 3774.52 194.459C3764.78 197.649 3753.61 199.233 3741.06 199.233Z" fill="white"/>
<path d="M3537.74 153.568H3514.85V176.389H3537.74V153.568Z" fill="white"/>
<path d="M3606.45 39.4405H3537.74V62.2616H3606.45V39.4405Z" fill="white"/>
<path d="M3606.45 176.412H3537.74V199.233H3606.45V176.412Z" fill="white"/>
<path d="M3629.35 153.568H3606.45V176.389H3629.35V153.568Z" fill="white"/>
<path d="M3537.74 62.2616H3514.85V85.0826H3537.74V62.2616Z" fill="white"/>
<path d="M3629.35 62.2616H3606.45V85.0826H3629.35V62.2616Z" fill="white"/>
<path d="M3652.25 85.0826H3629.35V153.568H3652.25V85.0826Z" fill="white"/>
<path d="M3514.82 85.0826H3491.93V153.568H3514.82V85.0826Z" fill="white"/>
<path d="M2900.32 178.397H2892.59C2878.09 178.397 2874.91 166.663 2874.91 152.207V41.3813H2900.29V178.397H2900.32Z" fill="white"/>
<path d="M2978.32 178.397H2979.21V41.3813H3004.59V152.207C3004.59 166.685 2992.82 178.397 2978.32 178.397Z" fill="white"/>
<path d="M2956.94 199.233H2922.56C2910.28 199.233 2900.32 189.306 2900.32 177.058V178.397H2979.19V177.058C2979.21 189.306 2969.23 199.233 2956.94 199.233Z" fill="white"/>
<path d="M1523.56 196.511V41.3813H1644.26V63.087H1548.96V106.275H1634.28V127.981H1548.96V174.783H1645.6V196.489H1523.56V196.511Z" fill="white"/>
<path d="M1676.47 196.511V41.3813H1701.87V196.511H1676.47Z" fill="white"/>
<path d="M1738.62 41.3813H1763.13L1834.15 138.622C1835.06 139.536 1836.07 140.808 1837.21 142.459C1838.35 144.11 1839.45 145.783 1840.5 147.433C1841.56 149.084 1842.32 150.445 1842.76 151.494H1843.91C1843.91 149.24 1843.91 147.054 1843.91 144.935C1843.91 142.816 1843.91 140.719 1843.91 138.6V41.3813H1868.41V196.511H1844.82L1772.89 98.1551C1771.68 96.3482 1770.16 94.0505 1768.35 91.262C1766.53 88.4735 1765.17 86.3319 1764.27 84.8149H1763.13C1763.13 86.9342 1763.13 89.0758 1763.13 91.262C1763.13 93.4481 1763.13 95.7459 1763.13 98.1551V196.533H1738.62V41.3813Z" fill="white"/>
<path d="M1946.46 196.511L1889.05 41.3813H1916.51L1955.07 149.709C1955.84 151.516 1956.57 153.635 1957.34 156.044C1958.1 158.454 1958.83 160.751 1959.6 162.938C1960.36 165.124 1961.03 167.042 1961.63 168.715H1962.77C1963.38 167.064 1964.05 165.168 1964.81 163.071C1965.57 160.952 1966.31 158.766 1967.07 156.513C1967.83 154.26 1968.57 152.074 1969.33 149.954L2007.45 41.4036H2033.99L1976.36 196.533H1946.46V196.511Z" fill="white"/>
<path d="M2054.7 196.511V41.3813H2175.4V63.087H2080.1V106.275H2165.42V127.981H2080.1V174.783H2176.74V196.489H2054.7V196.511Z" fill="white"/>
<path d="M2476.48 196.511L2537.51 41.3813H2569.96L2631.22 196.511H2604.01L2590.17 160.551H2516.43L2502.6 196.511H2476.48ZM2524.57 139.068H2581.76L2564.28 93.6043C2563.83 92.2435 2563.14 90.3696 2562.24 87.9604C2561.32 85.5511 2560.38 82.9188 2559.4 80.041C2558.42 77.1856 2557.43 74.2633 2556.45 71.3409C2555.46 68.3963 2554.59 65.7193 2553.83 63.3101H2552.46C2551.54 66.1655 2550.42 69.5786 2549.06 73.4825C2547.69 77.4087 2546.37 81.1787 2545.1 84.7926C2543.82 88.4065 2542.73 91.3512 2541.81 93.6043L2524.57 139.068Z" fill="white"/>
<path d="M1385.13 138.845H1359.66V196.511H1385.13V138.845Z" fill="white"/>
<path d="M1465.23 114.195H1470.25C1481.64 114.195 1490.86 104.981 1490.86 93.6489V83.6549C1490.86 72.3002 1481.62 63.1093 1470.25 63.1093H1465.23C1465.23 63.1539 1465.23 63.1762 1465.23 63.2208V114.195Z" fill="white"/>
<path d="M1465.21 63.087C1465.14 51.0853 1455.38 41.3813 1443.32 41.3813H1359.64V114.195H1385.11V63.087H1465.21Z" fill="white"/>
<path d="M1490.88 164.187C1490.88 150.2 1479.51 138.867 1465.48 138.867H1465.25V196.533H1490.88V164.187Z" fill="white"/>
<path d="M1465.21 114.195H1385.13V138.845H1465.21V114.195Z" fill="white"/>
<path d="M2412.06 196.511V63.087H2360.56V41.3813H2489.44V63.087H2437.49V196.511H2412.06Z" fill="white"/>
<path d="M2230.5 63.5554V41.3813H2207.61V196.511H2230.5V85.7073H2253.42V63.5554H2230.5Z" fill="white"/>
<path d="M2276.32 85.7073H2253.42V107.859H2276.32V85.7073Z" fill="white"/>
<path d="M2299.21 107.859H2276.32V130.011H2299.21V107.859Z" fill="white"/>
<path d="M2322.13 41.3813V130.033H2299.21V152.185H2322.13V196.511H2345.03V41.3813H2322.13Z" fill="white"/>
<path d="M0 196.511V41.3813H120.704V63.087H25.4031V106.275H110.722V127.981H25.4031V174.783H122.047V196.489H0V196.511Z" fill="white"/>
<path d="M152.911 196.511V41.3813H213.028C229.053 41.3813 242.751 44.1252 254.098 49.6353C265.445 55.1453 274.174 63.5777 280.307 74.9548C286.439 86.3319 289.506 101.011 289.506 118.946C289.506 136.748 286.439 151.36 280.307 162.826C274.174 174.292 265.445 182.769 254.098 188.257C242.751 193.767 229.053 196.511 213.028 196.511H152.911ZM178.336 174.805H212.826C220.839 174.805 227.979 173.757 234.268 171.638C240.535 169.518 245.839 166.284 250.159 161.911C254.478 157.539 257.724 152.007 259.917 145.292C262.111 138.577 263.207 130.636 263.207 121.445V116.693C263.207 107.346 262.111 99.3151 259.917 92.6004C257.724 85.8857 254.478 80.3534 250.159 75.981C245.839 71.6086 240.557 68.374 234.268 66.2547C227.979 64.1355 220.839 63.087 212.826 63.087H178.336V174.805Z" fill="white"/>
<path d="M382.523 199.233C369.206 199.233 357.725 197.091 348.033 192.786C338.342 188.48 330.934 181.81 325.809 172.775C320.661 163.718 318.087 152.274 318.087 138.399V41.3813H343.49V139.068C343.49 151.873 346.892 161.532 353.696 168.024C360.5 174.515 370.102 177.75 382.501 177.75C395.057 177.75 404.86 174.515 411.888 168.024C418.916 161.532 422.43 151.895 422.43 139.068V41.3813H447.833V138.399C447.833 152.274 445.214 163.718 439.999 172.775C434.784 181.81 427.287 188.502 417.528 192.786C407.837 197.091 396.154 199.233 382.523 199.233Z" fill="white"/>
<path d="M619.522 196.511L680.556 41.3813H713.01L774.268 196.511H747.052L733.22 160.551H659.473L645.641 196.511H619.522ZM667.642 139.068H724.827L707.347 93.6043C706.9 92.2435 706.206 90.3696 705.31 87.9604C704.393 85.5511 703.453 82.9188 702.468 80.041C701.483 77.1856 700.498 74.2633 699.514 71.3409C698.529 68.3963 697.656 65.7193 696.895 63.3101H695.53C694.612 66.1655 693.493 69.5786 692.128 73.4825C690.762 77.4087 689.442 81.1787 688.166 84.7926C686.89 88.4065 685.794 91.3512 684.876 93.6043L667.642 139.068Z" fill="white"/>
<path d="M858.445 199.233C842.554 199.233 829.058 196.399 817.935 190.756C806.811 185.112 798.306 176.322 792.419 164.41C786.511 152.497 783.579 137.35 783.579 118.946C783.579 91.8197 790.204 71.6532 803.431 58.4469C816.659 45.2629 835.079 38.6597 858.669 38.6597C871.673 38.6597 883.356 40.8459 893.719 45.2183C904.081 49.5906 912.25 56.1046 918.226 64.7824C924.202 73.4602 927.179 84.5026 927.179 97.9097H901.306C901.306 89.6112 899.56 82.6734 896.091 77.0964C892.599 71.5194 887.653 67.3032 881.23 64.4255C874.806 61.57 867.353 60.12 858.87 60.12C848.284 60.12 839.309 62.1947 831.99 66.3439C824.649 70.4932 819.121 76.7171 815.428 84.9934C811.712 93.292 809.877 103.844 809.877 116.648V121.623C809.877 134.428 811.735 145.002 815.428 153.278C819.143 161.577 824.627 167.711 831.878 171.705C839.13 175.698 848.127 177.705 858.87 177.705C867.644 177.705 875.276 176.322 881.789 173.511C888.28 170.723 893.316 166.529 896.874 160.952C900.433 155.375 902.201 148.437 902.201 140.139H927.157C927.157 153.568 924.157 164.633 918.204 173.378C912.228 182.122 904.059 188.614 893.696 192.83C883.356 197.113 871.605 199.233 858.445 199.233ZM858.445 237C854.819 237 851.082 236.844 847.21 236.554C843.36 236.242 839.846 235.795 836.668 235.193V225.244H857.997C860.862 225.244 863.145 224.798 864.802 223.883C866.458 222.968 867.308 221.474 867.308 219.354C867.308 217.547 866.704 216.187 865.495 215.294C864.287 214.38 861.87 213.934 858.244 213.934H847.59L850.992 194.035H866.413L864.824 204.653C868.763 204.81 872.389 205.412 875.724 206.46C879.059 207.509 881.655 209.07 883.557 211.1C885.437 213.13 886.4 215.874 886.4 219.354C886.4 222.968 885.527 225.913 883.781 228.166C882.035 230.419 879.775 232.204 876.977 233.475C874.179 234.747 871.158 235.662 867.913 236.197C864.6 236.732 861.467 237 858.445 237Z" fill="white"/>
<path d="M938.526 196.511L999.561 41.3813H1032.01L1093.27 196.511H1066.06L1052.22 160.551H978.477L964.646 196.511H938.526ZM979.149 24.2042C979.149 19.8318 979.865 15.7941 981.298 12.1132C982.73 8.41011 984.968 5.48776 987.99 3.30158C991.011 1.09309 994.883 0 999.561 0C1003.5 0 1007.19 0.646932 1010.68 1.91849C1014.15 3.19004 1017.6 4.4839 1021 5.75546C1024.4 7.04932 1027.85 7.67395 1031.32 7.67395C1033.45 7.67395 1035.15 7.07163 1036.42 5.867C1037.72 4.68468 1038.5 2.72157 1038.82 0H1052.9C1052.74 4.37236 1051.96 8.36549 1050.52 11.9794C1049.09 15.5933 1046.9 18.5379 1043.94 20.791C1040.99 23.0441 1037.09 24.1819 1032.26 24.1819C1028.48 24.1819 1024.81 23.5126 1021.25 22.1518C1017.69 20.791 1014.24 19.4749 1010.93 18.2033C1007.6 16.9318 1004.28 16.2848 1000.95 16.2848C998.688 16.2848 996.898 16.9318 995.622 18.2033C994.346 19.4972 993.54 21.4826 993.249 24.2042H979.149ZM986.647 139.068H1043.83L1026.35 93.6043C1025.9 92.2435 1025.21 90.3696 1024.31 87.9604C1023.4 85.5511 1022.46 82.9188 1021.47 80.041C1020.49 77.1856 1019.5 74.2633 1018.52 71.3409C1017.53 68.3963 1016.66 65.7193 1015.9 63.3101H1014.53C1013.62 66.1655 1012.5 69.5786 1011.13 73.4825C1009.77 77.4087 1008.45 81.1787 1007.17 84.7926C1005.89 88.4065 1004.8 91.3512 1003.88 93.6043L986.647 139.068Z" fill="white"/>
<path d="M516.902 39.0613V61.8823H585.614V39.0613H516.902Z" fill="white"/>
<path d="M516.902 153.189H494.006V176.01H516.902V153.189Z" fill="white"/>
<path d="M585.614 176.032H516.902V198.853H585.614V176.032Z" fill="white"/>
<path d="M608.51 153.189H585.614V176.01H608.51V153.189Z" fill="white"/>
<path d="M516.902 61.8823H494.006V84.7034H516.902V61.8823Z" fill="white"/>
<path d="M493.984 84.7034H471.087V153.189H493.984V84.7034Z" fill="white"/>
<path d="M608.51 61.8823H585.614V84.7034H608.51V61.8823Z" fill="white"/>
<path d="M1129.51 85.395C1129.51 79.0149 1130.81 72.9248 1133.11 67.3924C1112.5 75.4902 1097.88 95.5228 1097.88 118.946C1097.88 142.37 1112.48 162.402 1133.11 170.5C1130.78 164.968 1129.51 158.877 1129.51 152.497V85.395Z" fill="white"/>
<path d="M1219.68 67.3924C1222.01 72.9248 1223.29 79.0149 1223.29 85.395V152.497C1223.29 158.877 1221.99 164.968 1219.68 170.5C1240.3 162.402 1254.91 142.37 1254.91 118.946C1254.91 95.5228 1240.3 75.4902 1219.68 67.3924Z" fill="white"/>
<path d="M1199.32 63.5554C1206.5 63.5554 1213.37 64.9385 1219.68 67.4147C1212.61 50.5499 1195.89 38.682 1176.4 38.682C1156.9 38.682 1140.18 50.5499 1133.11 67.4147C1139.42 64.9385 1146.27 63.5554 1153.48 63.5554H1199.32Z" fill="white"/>
<path d="M1153.48 174.359C1146.29 174.359 1139.42 172.976 1133.11 170.5C1140.18 187.365 1156.9 199.233 1176.4 199.233C1195.89 199.233 1212.61 187.365 1219.68 170.5C1213.37 172.976 1206.52 174.359 1199.32 174.359H1153.48Z" fill="white"/>
</svg>
